<?xml version="1.0" encoding="utf-8"?>
<!-- Generator: Adobe Illustrator 18.1.1, SVG Export Plug-In . SVG Version: 6.00 Build 0)  -->
<svg version="1.1" id="Layer_1" xmlns="http://www.w3.org/2000/svg" xmlns:xlink="http://www.w3.org/1999/xlink" x="0px" y="0px"
	 viewBox="0 0 27.8 39.7" enable-background="new 0 0 27.8 39.7" xml:space="preserve">
<g>
	<path fill="#208A9B" d="M27.8,38.7c0,0.5-0.5,1-1,1H1c-0.6,0-1-0.5-1-1V5c0-0.6,0.4-1,1-1h25.8c0.5,0,1,0.4,1,1V38.7z"/>
	<path fill="#FFFFFF" d="M25.6,36.1c0,0.5-0.4,1-1,1H3.3c-0.5,0-1-0.5-1-1v-28c0-0.5,0.5-1,1-1h21.3c0.6,0,1,0.4,1,1V36.1z"/>
	<path fill="#B2DDDC" d="M21.2,2.4h-3.7l-0.1-0.5V0.8c0-0.4-0.4-0.8-0.8-0.8h-5.5c-0.4,0-0.8,0.4-0.8,0.8v1.1l-0.1,0.5H6.5
		c-0.4,0-0.8,0.4-0.8,0.8v4.5H22V3.2C22,2.7,21.6,2.4,21.2,2.4z M13.8,3.3c-0.6,0-1.1-0.5-1.1-1.1s0.5-1.1,1.1-1.1
		c0.6,0,1.1,0.5,1.1,1.1S14.4,3.3,13.8,3.3z"/>
	<circle fill="#208A9B" cx="5.7" cy="12.4" r="0.7"/>
	<circle fill="#208A9B" cx="5.7" cy="17.3" r="0.7"/>
	<circle fill="#208A9B" cx="5.7" cy="22.3" r="0.7"/>
	<circle fill="#208A9B" cx="5.7" cy="27.2" r="0.7"/>
	<circle fill="#208A9B" cx="5.7" cy="32.1" r="0.7"/>
	<rect x="7.6" y="11.4" fill="#B2DDDC" width="15.3" height="1.9"/>
	<rect x="7.6" y="16.3" fill="#B2DDDC" width="13.5" height="1.9"/>
	<rect x="7.6" y="21.3" fill="#B2DDDC" width="15.3" height="1.9"/>
	<rect x="7.6" y="26.3" fill="#B2DDDC" width="13.5" height="1.9"/>
	<rect x="7.6" y="31.2" fill="#B2DDDC" width="8.8" height="1.9"/>
</g>
</svg>
