<?xml version="1.0" encoding="utf-8"?>
<!-- Generator: Adobe Illustrator 18.1.1, SVG Export Plug-In . SVG Version: 6.00 Build 0)  -->
<svg version="1.1" id="Layer_1" xmlns="http://www.w3.org/2000/svg" xmlns:xlink="http://www.w3.org/1999/xlink" x="0px" y="0px"
	 viewBox="0 0 35.2 42.7" enable-background="new 0 0 35.2 42.7" xml:space="preserve">
<g>
	<g>
		<g>
			<g>
				<path fill="#B2DDDC" d="M21,12.4c0,0.1,0,0.2,0,0.3c0,1.2-0.6,2.3-1.6,2.9l8,18.7l1.4,0.9l0.5-1.5L21,12.4z"/>
			</g>
			<g>
				<path fill="#B2DDDC" d="M14,12.7l-8.1,21l0.5,1.5l1.4-0.9l8-18.7C14.7,15.1,14,14,14,12.7z"/>
			</g>
			<rect x="16.6" y="7.7" fill="#B2DDDC" width="2" height="1.7"/>
			<path fill="#208A9B" d="M17.5,9.1c-1.9,0-3.5,1.6-3.5,3.5c0,1.9,1.6,3.5,3.5,3.5c1.9,0,3.5-1.6,3.5-3.5
				C21,10.7,19.5,9.1,17.5,9.1z M17.5,14.2c-0.9,0-1.6-0.7-1.6-1.6c0-0.9,0.7-1.6,1.6-1.6c0.9,0,1.6,0.7,1.6,1.6
				C19.1,13.5,18.4,14.2,17.5,14.2z"/>
			<g>
				<path fill="#208A9B" d="M10.2,17.8c1.6,2.4,4.2,3.9,7.3,3.9c3,0,5.7-1.5,7.2-3.8L27,20c-2.1,2.9-5.6,4.8-9.5,4.8
					c-3.9,0-7.3-1.9-9.5-4.8L10.2,17.8z"/>
			</g>
			<path fill="#B2DDDC" d="M19.2,0h-3c-0.3,0-0.5,0.4-0.5,0.6l0.5,7.2h3l0.5-7.2C19.7,0.4,19.4,0,19.2,0z"/>
		</g>
		<g>
			<g>
				<polygon fill="#B2DDDC" points="26.7,41.5 26.7,40.1 26.7,38.9 5.2,39 5.2,40.2 5.2,41.6 5.2,42.7 26.7,42.6 				"/>
				<path fill="#208A9B" d="M34.9,42.6c0.2,0,0.3-0.1,0.3-0.3l0-3.1c0-0.2-0.2-0.3-0.4-0.3l-4.9,0c-0.2,0-0.3,0.1-0.3,0.3l0,3.1
					c0,0.2,0.2,0.3,0.3,0.3L34.9,42.6z"/>
				<polygon fill="#B2DDDC" points="31.2,42.6 31.2,38.9 25.5,38.9 25.6,42.6 				"/>
				<rect x="25.6" y="38.9" fill="#B2DDDC" width="5.6" height="1.2"/>
			</g>
			<polygon fill="#208A9B" points="1.8,41.6 1.8,40.2 0,40.9 			"/>
			<polygon fill="#B2DDDC" points="5.2,42.7 5.2,42.7 5.6,42.7 5.9,42.6 5.2,42 5.9,41.4 5.2,40.9 5.9,40.4 5.2,39.9 5.9,39.3 
				5.2,39 1.8,40.2 1.8,41.6 5.2,42.7 			"/>
		</g>
	</g>
</g>
</svg>
