<?xml version="1.0" encoding="utf-8"?>
<!-- Generator: Adobe Illustrator 18.1.1, SVG Export Plug-In . SVG Version: 6.00 Build 0)  -->
<svg version="1.1" id="Layer_1" xmlns="http://www.w3.org/2000/svg" xmlns:xlink="http://www.w3.org/1999/xlink" x="0px" y="0px"
	 viewBox="0 0 843.5 415.5" enable-background="new 0 0 843.5 415.5" xml:space="preserve">
<path fill="#595A5C" d="M173.2,175.9h493.6v239.6h20.6V172.7c0-9.5-7.1-17.3-15.9-17.3H169c-8.8,0-15.9,7.7-15.9,17.3v242.7h20.2
	V175.9z"/>
<rect x="173.2" y="175.9" fill="#FFFFFF" width="493.6" height="239.6"/>
<g>
	<rect x="173.3" y="175.9" fill="#EFEFEC" width="493" height="16.3"/>
</g>
<g>
	<path fill="#F9F9F8" d="M658.5,304.2c0,1.7-1.4,3.1-3.1,3.1H281.1c-1.7,0-3.1-1.4-3.1-3.1v-4.4c0-1.7,1.4-3.1,3.1-3.1h374.3
		c1.7,0,3.1,1.4,3.1,3.1V304.2z"/>
</g>
<g>
	<path fill="#F9F9F8" d="M658.5,334.8c0,1.7-1.4,3.1-3.1,3.1H281.1c-1.7,0-3.1-1.4-3.1-3.1v-4.4c0-1.7,1.4-3.1,3.1-3.1h374.3
		c1.7,0,3.1,1.4,3.1,3.1V334.8z"/>
</g>
<g>
	<path fill="#F9F9F8" d="M658.5,347.1c0,1.7-1.4,3.1-3.1,3.1H281.1c-1.7,0-3.1-1.4-3.1-3.1v-4.4c0-1.7,1.4-3.1,3.1-3.1h374.3
		c1.7,0,3.1,1.4,3.1,3.1V347.1z"/>
</g>
<g>
	<path fill="#F9F9F8" d="M658.5,359.2c0,1.7-1.4,3.1-3.1,3.1H281.1c-1.7,0-3.1-1.4-3.1-3.1v-4.4c0-1.7,1.4-3.1,3.1-3.1h374.3
		c1.7,0,3.1,1.4,3.1,3.1V359.2z"/>
</g>
<g>
	<rect x="214.4" y="182.8" fill="#A2A1A2" width="8.1" height="3"/>
</g>
<g>
	<rect x="178" y="181.5" fill="#A2A1A2" width="29.7" height="5.6"/>
</g>
<g>
	<rect x="249.1" y="182.8" fill="#A2A1A2" width="8.1" height="3"/>
</g>
<g>
	<rect x="229.8" y="182.8" fill="#A2A1A2" width="12.1" height="3"/>
</g>
<g>
	<rect x="278" y="223.7" fill="#89BBBA" width="13.1" height="3"/>
</g>
<g>
	<rect x="299.6" y="223.7" fill="#D2D6D8" width="16.2" height="3"/>
</g>
<g>
	<rect x="323.9" y="223.7" fill="#D2D6D8" width="22" height="3"/>
</g>
<g>
	<rect x="354.4" y="223.7" fill="#D2D6D8" width="22.7" height="3"/>
</g>
<g>
	<rect x="278" y="229.6" fill="#89BBBA" width="13.1" height="0.6"/>
</g>
<g>
	<rect x="290.8" y="229.6" fill="#F0EFEF" width="375.5" height="0.6"/>
</g>
<g>
	<circle fill="#86BE97" cx="282.3" cy="332.9" r="1.5"/>
</g>
<g>
	<circle fill="#E46769" cx="282.3" cy="345" r="1.5"/>
</g>
<g>
	<circle fill="#E46769" cx="282.3" cy="356.8" r="1.5"/>
</g>
<g>
	<circle fill="#86BE97" cx="282.3" cy="301.9" r="1.5"/>
</g>
<g>
	<circle fill="#D2D6D8" cx="293.3" cy="301.9" r="1.5"/>
</g>
<g>
	<g>
		<rect x="337" y="300.4" fill="#D2D6D8" width="33" height="3"/>
	</g>
	<g>
		<circle fill="#D2D6D8" cx="333.6" cy="301.9" r="1.5"/>
	</g>
</g>
<g>
	<g>
		<rect x="451.7" y="300.4" fill="#D2D6D8" width="44.6" height="3"/>
	</g>
	<g>
		<circle fill="#D2D6D8" cx="448" cy="301.9" r="1.5"/>
	</g>
</g>
<g>
	<g>
		<rect x="585.3" y="300.4" fill="#D2D6D8" width="18.9" height="3"/>
	</g>
	<g>
		<circle fill="#D2D6D8" cx="580.8" cy="301.9" r="1.5"/>
	</g>
</g>
<g>
	<g>
		<rect x="337" y="331" fill="#D2D6D8" width="33" height="3"/>
	</g>
	<g>
		<circle fill="#D2D6D8" cx="333.6" cy="332.5" r="1.5"/>
	</g>
</g>
<g>
	<g>
		<rect x="451.7" y="331" fill="#D2D6D8" width="44.6" height="3"/>
	</g>
	<g>
		<circle fill="#D2D6D8" cx="448" cy="332.5" r="1.5"/>
	</g>
</g>
<g>
	<g>
		<rect x="585.3" y="331" fill="#D2D6D8" width="18.9" height="3"/>
	</g>
	<g>
		<circle fill="#D2D6D8" cx="580.8" cy="332.5" r="1.5"/>
	</g>
</g>
<g>
	<g>
		<rect x="337" y="343.1" fill="#D2D6D8" width="33" height="3"/>
	</g>
	<g>
		<circle fill="#D2D6D8" cx="333.6" cy="344.6" r="1.5"/>
	</g>
</g>
<g>
	<g>
		<rect x="451.7" y="343.1" fill="#D2D6D8" width="44.6" height="3"/>
	</g>
	<g>
		<circle fill="#D2D6D8" cx="448" cy="344.6" r="1.5"/>
	</g>
</g>
<g>
	<g>
		<rect x="585.3" y="343.1" fill="#D2D6D8" width="18.9" height="3"/>
	</g>
	<g>
		<circle fill="#D2D6D8" cx="580.8" cy="344.6" r="1.5"/>
	</g>
</g>
<g>
	<g>
		<rect x="337" y="355.4" fill="#D2D6D8" width="33" height="3"/>
	</g>
	<g>
		<circle fill="#D2D6D8" cx="333.6" cy="356.9" r="1.5"/>
	</g>
</g>
<g>
	<g>
		<rect x="451.7" y="355.4" fill="#D2D6D8" width="44.6" height="3"/>
	</g>
	<g>
		<circle fill="#D2D6D8" cx="448" cy="356.9" r="1.5"/>
	</g>
</g>
<g>
	<g>
		<rect x="585.3" y="355.4" fill="#D2D6D8" width="18.9" height="3"/>
	</g>
	<g>
		<circle fill="#D2D6D8" cx="580.8" cy="356.9" r="1.5"/>
	</g>
</g>
<g>
	<circle fill="#838383" cx="368.6" cy="208" r="2.8"/>
</g>
<g>
	<circle fill="#D2D6D8" cx="293.3" cy="332.5" r="1.5"/>
</g>
<g>
	<circle fill="#D2D6D8" cx="293.3" cy="344.6" r="1.5"/>
</g>
<g>
	<circle fill="#D2D6D8" cx="293.3" cy="356.6" r="1.5"/>
</g>
<g>
	<rect x="297.5" y="355.5" fill="#E46769" width="8.1" height="3"/>
</g>
<g>
	<rect x="297.5" y="343.4" fill="#E46769" width="8.1" height="3"/>
</g>
<g>
	<rect x="297.5" y="331.6" fill="#86BE97" width="8.1" height="3"/>
</g>
<g>
	<rect x="297.5" y="300.4" fill="#86BE97" width="8.1" height="3"/>
</g>
<g>
	<path fill="#A7AEAE" d="M658.2,225.4c0,0.8-0.7,1.5-1.5,1.5h-26.7c-0.8,0-1.5-0.7-1.5-1.5v-5.7c0-0.9,0.7-1.5,1.5-1.5h26.7
		c0.8,0,1.5,0.7,1.5,1.5V225.4z"/>
</g>
<g>
	<g>
		
			<rect x="167.7" y="167.7" transform="matrix(0.9995 3.205648e-02 -3.205648e-02 0.9995 5.9066 -5.316)" fill="#3AA76A" width="2.1" height="27.8"/>
	</g>
	<g>
		
			<rect x="166.7" y="197.3" transform="matrix(0.9995 3.205648e-02 -3.205648e-02 0.9995 6.8574 -5.2702)" fill="#DB4342" width="2.1" height="27.8"/>
	</g>
	<g>
		
			<rect x="163.9" y="286.7" transform="matrix(0.9995 3.205648e-02 -3.205648e-02 0.9995 9.7188 -5.1325)" fill="#DB4342" width="2.1" height="27.8"/>
	</g>
	<g>
		
			<rect x="165.8" y="227.1" transform="matrix(0.9995 3.205648e-02 -3.205648e-02 0.9995 7.8112 -5.2243)" fill="#3AA76A" width="2.1" height="27.8"/>
	</g>
	<g>
		
			<rect x="164.8" y="257.1" transform="matrix(0.9995 3.205648e-02 -3.205648e-02 0.9995 8.7712 -5.1781)" fill="#3AA76A" width="2.1" height="27.8"/>
	</g>
	<g>
		
			<rect x="162.9" y="316.1" transform="matrix(0.9995 3.205648e-02 -3.205648e-02 0.9995 10.6633 -5.087)" fill="#3AA76A" width="2.1" height="27.8"/>
	</g>
	<g>
		
			<rect x="162" y="346.1" transform="matrix(0.9995 3.205648e-02 -3.205648e-02 0.9995 11.6233 -5.0408)" fill="#3AA76A" width="2.1" height="27.8"/>
	</g>
	<g>
		
			<rect x="165.7" y="126.2" transform="matrix(0.9995 3.205648e-02 -3.205648e-02 0.9995 8.1395 -6.6858)" fill="#F7F9F9" width="93.8" height="248.6"/>
		<path fill="#E2E9EC" d="M255.9,376.8l-0.5,0l-94.2-3l0-0.5l8-249l94.7,3L255.9,376.8z M162.3,372.7l92.7,3l7.9-247.5l-92.7-3
			L162.3,372.7z"/>
	</g>
	<g>
		
			<rect x="178.3" y="182.4" transform="matrix(0.9995 3.205648e-02 -3.205648e-02 0.9995 5.9933 -6.0688)" fill="#D2D6D8" width="27.9" height="3"/>
	</g>
	<g>
		
			<rect x="176" y="139.2" transform="matrix(0.9995 3.205648e-02 -3.205648e-02 0.9995 4.6099 -6.253)" fill="#D2D6D8" width="42.5" height="3"/>
	</g>
	<g>
		
			<rect x="178.6" y="173.2" transform="matrix(0.9995 3.205648e-02 -3.205648e-02 0.9995 5.6993 -6.217)" fill="#86BE97" width="36.2" height="3"/>
	</g>
	<g>
		
			<rect x="249.9" y="175" transform="matrix(0.9995 3.205648e-02 -3.205648e-02 0.9995 5.7876 -8.0506)" fill="#86BE97" width="8.1" height="3"/>
	</g>
	<g>
		
			<rect x="178.1" y="188.9" transform="matrix(0.9995 3.205648e-02 -3.205648e-02 0.9995 6.2044 -6.2546)" fill="#D2D6D8" width="40.1" height="3"/>
	</g>
	<g>
		
			<rect x="173.2" y="156.5" transform="matrix(0.9995 3.205648e-02 -3.205648e-02 0.9995 5.1601 -5.9419)" fill="#89BBBA" width="29.3" height="3"/>
	</g>
	<g>
		
			<rect x="173.1" y="162.1" transform="matrix(0.9995 3.205648e-02 -3.205648e-02 0.9995 5.2995 -5.6753)" fill="#89BBBA" width="13.1" height="0.6"/>
	</g>
	<g>
		
			<rect x="185.8" y="163.5" transform="matrix(0.9995 3.205648e-02 -3.205648e-02 0.9995 5.3648 -7.0314)" fill="#F0EFEF" width="72.4" height="0.6"/>
	</g>
	<g>
		<circle fill="#86BE97" cx="174.5" cy="173.7" r="1.5"/>
	</g>
	<g>
		<circle fill="#D2D6D8" cx="174.2" cy="183.1" r="1.5"/>
	</g>
	<g>
		<circle fill="#D2D6D8" cx="247" cy="175.9" r="1.5"/>
	</g>
	<g>
		<circle fill="#D2D6D8" cx="254.4" cy="142" r="1.5"/>
	</g>
	<g>
		<circle fill="#D2D6D8" cx="174" cy="189.7" r="1.5"/>
	</g>
	<g>
		
			<rect x="176.4" y="241.7" transform="matrix(0.9995 3.205648e-02 -3.205648e-02 0.9995 7.8948 -5.9773)" fill="#D2D6D8" width="27.9" height="3"/>
	</g>
	<g>
		
			<rect x="176.7" y="232.5" transform="matrix(0.9995 3.205648e-02 -3.205648e-02 0.9995 7.6008 -6.1255)" fill="#86BE97" width="36.2" height="3"/>
	</g>
	<g>
		
			<rect x="248" y="234.3" transform="matrix(0.9995 3.205648e-02 -3.205648e-02 0.9995 7.689 -7.9591)" fill="#86BE97" width="8.1" height="3"/>
	</g>
	<g>
		
			<rect x="176.2" y="248.2" transform="matrix(0.9995 3.205648e-02 -3.205648e-02 0.9995 8.1058 -6.1631)" fill="#D2D6D8" width="40.1" height="3"/>
	</g>
	<g>
		<circle fill="#86BE97" cx="172.6" cy="233.1" r="1.5"/>
	</g>
	<g>
		<circle fill="#D2D6D8" cx="172.3" cy="242.5" r="1.5"/>
	</g>
	<g>
		<circle fill="#D2D6D8" cx="245.1" cy="235.3" r="1.5"/>
	</g>
	<g>
		<circle fill="#D2D6D8" cx="172.1" cy="249" r="1.5"/>
	</g>
	<g>
		
			<rect x="175.5" y="271.6" transform="matrix(0.9995 3.205648e-02 -3.205648e-02 0.9995 8.8516 -5.9312)" fill="#D2D6D8" width="27.9" height="3"/>
	</g>
	<g>
		
			<rect x="175.8" y="262.4" transform="matrix(0.9995 3.205648e-02 -3.205648e-02 0.9995 8.5577 -6.0795)" fill="#86BE97" width="36.2" height="3"/>
	</g>
	<g>
		
			<rect x="247.1" y="264.2" transform="matrix(0.9995 3.205648e-02 -3.205648e-02 0.9995 8.6459 -7.913)" fill="#86BE97" width="8.1" height="3"/>
	</g>
	<g>
		
			<rect x="175.3" y="278.1" transform="matrix(0.9995 3.205648e-02 -3.205648e-02 0.9995 9.0627 -6.117)" fill="#D2D6D8" width="40.1" height="3"/>
	</g>
	<g>
		<circle fill="#86BE97" cx="171.7" cy="262.9" r="1.5"/>
	</g>
	<g>
		<circle fill="#D2D6D8" cx="171.4" cy="272.3" r="1.5"/>
	</g>
	<g>
		<circle fill="#D2D6D8" cx="244.1" cy="265.1" r="1.5"/>
	</g>
	<g>
		<circle fill="#D2D6D8" cx="171.2" cy="278.9" r="1.5"/>
	</g>
	<g>
		
			<rect x="174.5" y="301.3" transform="matrix(0.9995 3.205648e-02 -3.205648e-02 0.9995 9.8024 -5.8855)" fill="#D2D6D8" width="27.9" height="3"/>
	</g>
	<g>
		
			<rect x="174.8" y="292" transform="matrix(0.9995 3.205648e-02 -3.205648e-02 0.9995 9.5084 -6.0337)" fill="#E46769" width="36.2" height="3"/>
	</g>
	<g>
		
			<rect x="246.1" y="293.9" transform="matrix(0.9995 3.205648e-02 -3.205648e-02 0.9995 9.5967 -7.8672)" fill="#E46769" width="8.1" height="3"/>
	</g>
	<g>
		
			<rect x="174.3" y="307.8" transform="matrix(0.9995 3.205648e-02 -3.205648e-02 0.9995 10.0134 -6.0713)" fill="#D2D6D8" width="40.1" height="3"/>
	</g>
	<g>
		<circle fill="#E46769" cx="170.7" cy="292.6" r="1.5"/>
	</g>
	<g>
		<circle fill="#D2D6D8" cx="170.4" cy="302" r="1.5"/>
	</g>
	<g>
		<circle fill="#D2D6D8" cx="243.2" cy="294.8" r="1.5"/>
	</g>
	<g>
		<circle fill="#D2D6D8" cx="170.2" cy="308.5" r="1.5"/>
	</g>
	<g>
		
			<rect x="177.4" y="212.3" transform="matrix(0.9995 3.205648e-02 -3.205648e-02 0.9995 6.9502 -6.0228)" fill="#D2D6D8" width="27.9" height="3"/>
	</g>
	<g>
		
			<rect x="177.7" y="203" transform="matrix(0.9995 3.205648e-02 -3.205648e-02 0.9995 6.6562 -6.171)" fill="#E46769" width="36.2" height="3"/>
	</g>
	<g>
		
			<rect x="249" y="204.9" transform="matrix(0.9995 3.205648e-02 -3.205648e-02 0.9995 6.7445 -8.0045)" fill="#E46769" width="8.1" height="3"/>
	</g>
	<g>
		
			<rect x="177.2" y="218.8" transform="matrix(0.9995 3.205648e-02 -3.205648e-02 0.9995 7.1613 -6.2085)" fill="#D2D6D8" width="40.1" height="3"/>
	</g>
	<g>
		<circle fill="#E46769" cx="173.6" cy="203.6" r="1.5"/>
	</g>
	<g>
		<circle fill="#D2D6D8" cx="173.3" cy="213" r="1.5"/>
	</g>
	<g>
		<circle fill="#D2D6D8" cx="246" cy="205.8" r="1.5"/>
	</g>
	<g>
		<circle fill="#D2D6D8" cx="173.1" cy="219.5" r="1.5"/>
	</g>
	<g>
		
			<rect x="173.5" y="331.2" transform="matrix(0.9995 3.205648e-02 -3.205648e-02 0.9995 10.7593 -5.8394)" fill="#D2D6D8" width="27.9" height="3"/>
	</g>
	<g>
		
			<rect x="173.8" y="321.9" transform="matrix(0.9995 3.205648e-02 -3.205648e-02 0.9995 10.4653 -5.9877)" fill="#86BE97" width="36.2" height="3"/>
	</g>
	<g>
		
			<rect x="245.1" y="323.7" transform="matrix(0.9995 3.205648e-02 -3.205648e-02 0.9995 10.5535 -7.8212)" fill="#86BE97" width="8.1" height="3"/>
	</g>
	<g>
		
			<rect x="173.3" y="337.6" transform="matrix(0.9995 3.205648e-02 -3.205648e-02 0.9995 10.9703 -6.0252)" fill="#D2D6D8" width="40.1" height="3"/>
	</g>
	<g>
		<circle fill="#86BE97" cx="169.8" cy="322.5" r="1.5"/>
	</g>
	<g>
		<circle fill="#D2D6D8" cx="169.5" cy="331.9" r="1.5"/>
	</g>
	<g>
		<circle fill="#D2D6D8" cx="242.2" cy="324.7" r="1.5"/>
	</g>
	<g>
		<circle fill="#D2D6D8" cx="169.2" cy="338.4" r="1.5"/>
	</g>
	<g>
		
			<rect x="172.6" y="361" transform="matrix(0.9995 3.205648e-02 -3.205648e-02 0.9995 11.7141 -5.7935)" fill="#D2D6D8" width="27.9" height="3"/>
	</g>
	<g>
		
			<rect x="172.9" y="351.7" transform="matrix(0.9995 3.205648e-02 -3.205648e-02 0.9995 11.4201 -5.9417)" fill="#86BE97" width="36.2" height="3"/>
	</g>
	<g>
		
			<rect x="244.2" y="353.5" transform="matrix(0.9995 3.205648e-02 -3.205648e-02 0.9995 11.5083 -7.7752)" fill="#86BE97" width="8.1" height="3"/>
	</g>
	<g>
		
			<rect x="172.4" y="367.4" transform="matrix(0.9995 3.205648e-02 -3.205648e-02 0.9995 11.9252 -5.9793)" fill="#D2D6D8" width="40.1" height="3"/>
	</g>
	<g>
		<circle fill="#86BE97" cx="168.8" cy="352.3" r="1.5"/>
	</g>
	<g>
		<circle fill="#D2D6D8" cx="168.5" cy="361.7" r="1.5"/>
	</g>
	<g>
		<circle fill="#D2D6D8" cx="241.2" cy="354.5" r="1.5"/>
	</g>
	<g>
		<circle fill="#D2D6D8" cx="168.3" cy="368.2" r="1.5"/>
	</g>
	<g>
		<g>
			<path fill="#EEEEEF" d="M255.8,148.2l-79.6-2.6c-1.9-0.1-3.4-1.7-3.4-3.6l0.1-4.4c0.1-1.9,1.7-3.4,3.6-3.4l79.6,2.6
				c1.9,0.1,3.4,1.7,3.4,3.6l-0.1,4.4C259.4,146.7,257.7,148.2,255.8,148.2z M176.6,135c-1.5,0-2.7,1.1-2.8,2.6l-0.1,4.4
				c0,1.5,1.1,2.7,2.6,2.8l79.6,2.6c1.5,0,2.7-1.1,2.8-2.6l0.1-4.4c0-1.5-1.1-2.7-2.6-2.8L176.6,135z"/>
		</g>
	</g>
</g>
<g>
	<rect x="636.4" y="221" fill="#EEEEEF" width="18.1" height="3"/>
</g>
<g>
	<circle fill="#EEEEEF" cx="632.2" cy="222.5" r="1.5"/>
</g>
<g>
	<path fill="#5D5E5E" d="M378,205.8c-0.7,0-1.4,0.4-1.4,1v3.6c0,0.5,0.6,1,1.4,1h9.5v-5.5H378z"/>
</g>
<g>
	<path fill="#5BB951" d="M402.9,210.4v-3.6c0-0.5-0.6-1-1.4-1h-14.1v5.5h14.1C402.3,211.3,402.9,210.9,402.9,210.4z"/>
</g>
<g>
	<rect x="279.1" y="204.2" fill="#D2D6D8" width="80.7" height="6.7"/>
</g>
<g>
	<g>
		<g>
			<path fill="#F7F9F9" d="M281.9,286.6c-1.9,0-3.5-1.6-3.6-3.5l-1.3-36.6c0-1,0.3-1.9,1-2.6c0.7-0.7,1.5-1.1,2.5-1.1l9.2-0.3
				l1.6,43.8L281.9,286.6z"/>
		</g>
		<g>
			<path fill="#E2E9EC" d="M289.1,243l1.6,42.8l-8.7,0.3c0,0-0.1,0-0.1,0c-1.6,0-3-1.3-3.1-3l-1.3-36.6c-0.1-1.7,1.3-3.1,3-3.2
				L289.1,243 M290.1,242l-1,0l-8.7,0.3c-2.3,0.1-4,2-3.9,4.2l1.3,36.6c0.1,2.2,1.9,3.9,4.1,3.9c0,0,0.1,0,0.1,0l8.7-0.3l1,0l0-1
				l-1.6-42.8L290.1,242L290.1,242z"/>
		</g>
	</g>
	<g>
		<g>
			<path fill="#F7F9F9" d="M288.6,242.5l365.5-13.3c1.9,0,3.5,1.5,3.6,3.5l1.3,36.6c0,1-0.3,1.9-1,2.6c-0.7,0.7-1.5,1.1-2.5,1.1
				l-365.4,13.3L288.6,242.5z M619.7,234.7c-1.8,0.1-3.3,1.6-3.2,3.5c0.1,1.8,1.5,3.2,3.3,3.2l0.1,0c0.9,0,1.7-0.4,2.3-1.1
				c0.6-0.7,0.9-1.5,0.9-2.4c-0.1-1.8-1.5-3.2-3.3-3.2L619.7,234.7z"/>
		</g>
		<g>
			<path fill="#E2E9EC" d="M654.1,229.7c1.6,0,3,1.3,3.1,3l1.3,36.6c0.1,1.7-1.3,3.1-3,3.2l-364.9,13.3l-1.6-42.8L654,229.7
				C654.1,229.7,654.1,229.7,654.1,229.7 M619.8,241.9c0,0,0.1,0,0.1,0c2.1-0.1,3.8-1.9,3.7-4c-0.1-2.1-1.8-3.7-3.8-3.7
				c0,0-0.1,0-0.1,0c-2.1,0.1-3.8,1.9-3.7,4C616,240.3,617.7,241.9,619.8,241.9 M654.1,228.7c0,0-0.1,0-0.1,0L289.1,242l-1,0l0,1
				l1.6,42.8l0,1l1,0l364.9-13.3c2.3-0.1,4-2,3.9-4.2l-1.3-36.6C658.1,230.5,656.3,228.7,654.1,228.7L654.1,228.7z M619.8,240.9
				c-1.5,0-2.8-1.2-2.8-2.7c0-0.8,0.2-1.5,0.8-2c0.5-0.6,1.2-0.9,2-0.9l0.1,0c1.5,0,2.8,1.2,2.8,2.7c0.1,1.6-1.2,2.9-2.7,2.9
				L619.8,240.9L619.8,240.9z"/>
		</g>
	</g>
</g>
<g>
	<g>
		<path fill="#3AA76A" d="M280.5,243.3c-1.7,0.1-3,1.5-3,3.2l1.3,36.6c0.1,1.7,1.5,3,3.2,3l8.7-0.3l-1.6-42.8L280.5,243.3z"/>
	</g>
	<g>
		<path fill="#F1F3F4" d="M657.2,232.7c-0.1-1.7-1.5-3-3.2-3L289.1,243l1.6,42.8l364.9-13.3c1.7-0.1,3-1.5,3-3.2L657.2,232.7z
			 M619.9,241.9c-2.1,0.1-3.9-1.6-4-3.7c-0.1-2.1,1.6-3.9,3.7-4c2.1-0.1,3.9,1.6,4,3.7C623.7,240,622.1,241.8,619.9,241.9z"/>
	</g>
	<g>
		
			<rect x="543.2" y="238.5" transform="matrix(0.9993 -3.633185e-02 3.633185e-02 0.9993 -8.3536 20.3269)" fill="#86BE97" width="23.8" height="3"/>
	</g>
	<g>
		
			<rect x="544" y="259.1" transform="matrix(0.9993 -3.633185e-02 3.633185e-02 0.9993 -9.0948 20.6292)" fill="#D2D6D8" width="38.2" height="3"/>
	</g>
	<g>
		
			<rect x="544.3" y="267.2" transform="matrix(0.9993 -3.633185e-02 3.633185e-02 0.9993 -9.3956 20.2598)" fill="#D2D6D8" width="17" height="3"/>
	</g>
	<g>
		
			<rect x="543.7" y="251.6" transform="matrix(0.9993 -3.633185e-02 3.633185e-02 0.9993 -8.8194 20.8761)" fill="#D2D6D8" width="52.6" height="3"/>
	</g>
	<g>
		
			<rect x="302.4" y="275.5" transform="matrix(0.9993 -3.633185e-02 3.633185e-02 0.9993 -9.8375 12.6322)" fill="#D2D6D8" width="80.6" height="3"/>
	</g>
	<g>
		<circle fill="#D2D6D8" cx="538.5" cy="240" r="1.5"/>
	</g>
	<g>
		<circle fill="#D2D6D8" cx="538.7" cy="247.3" r="1.5"/>
	</g>
	<g>
		<circle fill="#D2D6D8" cx="539" cy="254.6" r="1.5"/>
	</g>
	<g>
		<circle fill="#D2D6D8" cx="539.3" cy="261.9" r="1.5"/>
	</g>
	<g>
		<circle fill="#D2D6D8" cx="539.5" cy="269.2" r="1.5"/>
	</g>
	<g>
		<circle fill="#D2D6D8" cx="296.8" cy="278.9" r="2.8"/>
	</g>
	<g>
		<circle fill="#FFFFFF" cx="283.4" cy="248.7" r="2.8"/>
	</g>
	<g>
		<circle fill="#FFFFFF" cx="283.7" cy="257.5" r="2.8"/>
	</g>
	<g>
		
			<rect x="543.5" y="245.3" transform="matrix(0.9993 -3.633185e-02 3.633185e-02 0.9993 -8.5965 20.5038)" fill="#D2D6D8" width="32.8" height="3"/>
	</g>
	<g>
		
			<rect x="293" y="245.6" transform="matrix(0.9993 -3.633185e-02 3.633185e-02 0.9993 -8.7557 12.2715)" fill="#D2D6D8" width="80.6" height="3"/>
	</g>
</g>
<g>
	<path fill="#FFFFFF" stroke="#BFE5E8" stroke-linecap="round" stroke-linejoin="round" stroke-miterlimit="10" d="M580.5,207.8"/>
</g>
<g>
	<path fill="#FFFFFF" stroke="#BFE5E8" stroke-linecap="round" stroke-linejoin="round" stroke-miterlimit="10" d="M580.6,162.1"/>
</g>
<g>
	<path fill="#74CCD2" d="M778.9,165.3c-0.6,0-1.1-0.2-1.5-0.7L756,140.3c-0.7-0.8-0.6-2.1,0.2-2.8c0.8-0.7,2.1-0.6,2.8,0.2
		l21.3,24.4c0.7,0.8,0.6,2.1-0.2,2.8C779.8,165.1,779.3,165.3,778.9,165.3z"/>
</g>
<g>
	<path fill="#74CCD2" d="M778.9,214c-0.6,0-1.1-0.2-1.5-0.7L756,189c-0.7-0.8-0.6-2.1,0.2-2.8c0.8-0.7,2.1-0.6,2.8,0.2l21.3,24.4
		c0.7,0.8,0.6,2.1-0.2,2.8C779.8,213.9,779.3,214,778.9,214z"/>
</g>
<g>
	<path fill="#74CCD2" d="M778.9,263.2c-0.6,0-1.1-0.2-1.5-0.7L756,238.1c-0.7-0.8-0.6-2.1,0.2-2.8c0.8-0.7,2.1-0.6,2.8,0.2
		l21.3,24.4c0.7,0.8,0.6,2.1-0.2,2.8C779.8,263,779.3,263.2,778.9,263.2z"/>
</g>
<g>
	<path fill="#4BB0B9" d="M756.9,162.9c-0.5,0-1-0.2-1.4-0.6c-0.8-0.8-0.8-2,0-2.8l22.6-23c0.8-0.8,2-0.8,2.8,0c0.8,0.8,0.8,2,0,2.8
		l-22.6,23C757.9,162.7,757.4,162.9,756.9,162.9z"/>
</g>
<g>
	<path fill="#74CCD2" d="M756.9,187.7c-0.5,0-1-0.2-1.4-0.6c-0.8-0.8-0.8-2,0-2.8l22.6-23c0.8-0.8,2-0.8,2.8,0c0.8,0.8,0.8,2,0,2.8
		l-22.6,23C757.9,187.5,757.4,187.7,756.9,187.7z"/>
</g>
<g>
	<path fill="#4BB0B9" d="M756.9,213.4c-0.5,0-1-0.2-1.4-0.6c-0.8-0.8-0.8-2,0-2.8l22.6-23c0.8-0.8,2-0.8,2.8,0c0.8,0.8,0.8,2,0,2.8
		l-22.6,23C757.9,213.2,757.4,213.4,756.9,213.4z"/>
</g>
<g>
	<path fill="#74CCD2" d="M756.9,238.2c-0.5,0-1-0.2-1.4-0.6c-0.8-0.8-0.8-2,0-2.8l22.6-23c0.8-0.8,2-0.8,2.8,0c0.8,0.8,0.8,2,0,2.8
		l-22.6,23C757.9,238,757.4,238.2,756.9,238.2z"/>
</g>
<g>
	<path fill="#4BB0B9" d="M756.9,262.1c-0.5,0-1-0.2-1.4-0.6c-0.8-0.8-0.8-2,0-2.8l22.6-23c0.8-0.8,2-0.8,2.8,0c0.8,0.8,0.8,2,0,2.8
		l-22.6,23C757.9,261.9,757.4,262.1,756.9,262.1z"/>
</g>
<g>
	<path fill="#4BB0B9" d="M778.9,189.2c-0.6,0-1.1-0.2-1.5-0.7L756,164.2c-0.7-0.8-0.6-2.1,0.2-2.8c0.8-0.7,2.1-0.6,2.8,0.2
		l21.3,24.4c0.7,0.8,0.6,2.1-0.2,2.8C779.8,189.1,779.3,189.2,778.9,189.2z"/>
</g>
<g>
	<path fill="#4BB0B9" d="M778.9,237.9c-0.6,0-1.1-0.2-1.5-0.7L756,212.9c-0.7-0.8-0.6-2.1,0.2-2.8c0.8-0.7,2.1-0.6,2.8,0.2
		l21.3,24.4c0.7,0.8,0.6,2.1-0.2,2.8C779.8,237.8,779.3,237.9,778.9,237.9z"/>
</g>
<g>
	<path fill="#4BB0B9" d="M778.9,288.2c-0.6,0-1.1-0.2-1.5-0.7L756,263.2c-0.7-0.8-0.6-2.1,0.2-2.8c0.8-0.7,2.1-0.6,2.8,0.2
		l21.3,24.4c0.7,0.8,0.6,2.1-0.2,2.8C779.8,288.1,779.3,288.2,778.9,288.2z"/>
</g>
<g>
	<path fill="#74CCD2" d="M778.9,313.9c-0.6,0-1.1-0.2-1.5-0.7L756,288.9c-0.7-0.8-0.6-2.1,0.2-2.8c0.8-0.7,2.1-0.6,2.8,0.2
		l21.3,24.4c0.7,0.8,0.6,2.1-0.2,2.8C779.8,313.7,779.3,313.9,778.9,313.9z"/>
</g>
<g>
	<path fill="#74CCD2" d="M778.9,362.6c-0.6,0-1.1-0.2-1.5-0.7L756,337.6c-0.7-0.8-0.6-2.1,0.2-2.8c0.8-0.7,2.1-0.6,2.8,0.2
		l21.3,24.4c0.7,0.8,0.6,2.1-0.2,2.8C779.8,362.5,779.3,362.6,778.9,362.6z"/>
</g>
<g>
	<path fill="#74CCD2" d="M778.9,411.8c-0.6,0-1.1-0.2-1.5-0.7L756,386.7c-0.7-0.8-0.6-2.1,0.2-2.8c0.8-0.7,2.1-0.6,2.8,0.2
		l21.3,24.4c0.7,0.8,0.6,2.1-0.2,2.8C779.8,411.6,779.3,411.8,778.9,411.8z"/>
</g>
<g>
	<path fill="#74CCD2" d="M756.9,287.6c-0.5,0-1-0.2-1.4-0.6c-0.8-0.8-0.8-2,0-2.8l22.6-23c0.8-0.8,2-0.8,2.8,0c0.8,0.8,0.8,2,0,2.8
		l-22.6,23C757.9,287.4,757.4,287.6,756.9,287.6z"/>
</g>
<g>
	<path fill="#4BB0B9" d="M756.9,311.5c-0.5,0-1-0.2-1.4-0.6c-0.8-0.8-0.8-2,0-2.8l22.6-23c0.8-0.8,2-0.8,2.8,0c0.8,0.8,0.8,2,0,2.8
		l-22.6,23C757.9,311.3,757.4,311.5,756.9,311.5z"/>
</g>
<g>
	<path fill="#74CCD2" d="M756.9,336.3c-0.5,0-1-0.2-1.4-0.6c-0.8-0.8-0.8-2,0-2.8l22.6-23c0.8-0.8,2-0.8,2.8,0c0.8,0.8,0.8,2,0,2.8
		l-22.6,23C757.9,336.1,757.4,336.3,756.9,336.3z"/>
</g>
<g>
	<path fill="#4BB0B9" d="M756.9,362c-0.5,0-1-0.2-1.4-0.6c-0.8-0.8-0.8-2,0-2.8l22.6-23c0.8-0.8,2-0.8,2.8,0c0.8,0.8,0.8,2,0,2.8
		l-22.6,23C757.9,361.8,757.4,362,756.9,362z"/>
</g>
<g>
	<path fill="#74CCD2" d="M756.9,386.8c-0.5,0-1-0.2-1.4-0.6c-0.8-0.8-0.8-2,0-2.8l22.6-23c0.8-0.8,2-0.8,2.8,0c0.8,0.8,0.8,2,0,2.8
		l-22.6,23C757.9,386.6,757.4,386.8,756.9,386.8z"/>
</g>
<g>
	<path fill="#4BB0B9" d="M756.9,410.7c-0.5,0-1-0.2-1.4-0.6c-0.8-0.8-0.8-2,0-2.8l22.6-23c0.8-0.8,2-0.8,2.8,0c0.8,0.8,0.8,2,0,2.8
		l-22.6,23C757.9,410.5,757.4,410.7,756.9,410.7z"/>
</g>
<g>
	<path fill="#4BB0B9" d="M778.9,337.8c-0.6,0-1.1-0.2-1.5-0.7L756,312.8c-0.7-0.8-0.6-2.1,0.2-2.8c0.8-0.7,2.1-0.6,2.8,0.2
		l21.3,24.4c0.7,0.8,0.6,2.1-0.2,2.8C779.8,337.7,779.3,337.8,778.9,337.8z"/>
</g>
<g>
	<path fill="#4BB0B9" d="M778.9,386.5c-0.6,0-1.1-0.2-1.5-0.7L756,361.5c-0.7-0.8-0.6-2.1,0.2-2.8c0.8-0.7,2.1-0.6,2.8,0.2
		l21.3,24.4c0.7,0.8,0.6,2.1-0.2,2.8C779.8,386.4,779.3,386.5,778.9,386.5z"/>
</g>
<g>
	<path fill="#D8BA5B" d="M65.2,189.1c-0.5,0-0.9-0.2-1.3-0.5c-0.8-0.7-0.9-2-0.2-2.8l21.3-24.4c0.7-0.8,2-0.9,2.8-0.2
		c0.8,0.7,0.9,2,0.2,2.8l-21.3,24.4C66.4,188.9,65.8,189.1,65.2,189.1z"/>
</g>
<g>
	<path fill="#D8BA5B" d="M65.2,238.3c-0.5,0-0.9-0.2-1.3-0.5c-0.8-0.7-0.9-2-0.2-2.8l21.3-24.4c0.7-0.8,2-0.9,2.8-0.2
		c0.8,0.7,0.9,2,0.2,2.8l-21.3,24.4C66.4,238.1,65.8,238.3,65.2,238.3z"/>
</g>
<g>
	<path fill="#FEE092" d="M87.2,188.5c-0.5,0-1-0.2-1.4-0.6l-22.6-23c-0.8-0.8-0.8-2.1,0-2.8c0.8-0.8,2.1-0.8,2.8,0l22.6,23
		c0.8,0.8,0.8,2.1,0,2.8C88.2,188.3,87.7,188.5,87.2,188.5z"/>
</g>
<g>
	<path fill="#D8BA5B" d="M87.2,213.3c-0.5,0-1-0.2-1.4-0.6l-22.6-23c-0.8-0.8-0.8-2.1,0-2.8c0.8-0.8,2.1-0.8,2.8,0l22.6,23
		c0.8,0.8,0.8,2.1,0,2.8C88.2,213.1,87.7,213.3,87.2,213.3z"/>
</g>
<g>
	<path fill="#FEE092" d="M87.2,237.2c-0.5,0-1-0.2-1.4-0.6l-22.6-23c-0.8-0.8-0.8-2.1,0-2.8c0.8-0.8,2.1-0.8,2.8,0l22.6,23
		c0.8,0.8,0.8,2.1,0,2.8C88.2,237,87.7,237.2,87.2,237.2z"/>
</g>
<g>
	<path fill="#FEE092" d="M65.2,213c-0.5,0-0.9-0.2-1.3-0.5c-0.8-0.7-0.9-2-0.2-2.8l21.3-24.4c0.7-0.8,2-0.9,2.8-0.2
		c0.8,0.7,0.9,2,0.2,2.8l-21.3,24.4C66.4,212.8,65.8,213,65.2,213z"/>
</g>
<g>
	<path fill="#D8BA5B" d="M87.2,162.7c-0.5,0-1-0.2-1.4-0.6l-22.6-23c-0.8-0.8-0.8-2.1,0-2.8c0.8-0.8,2.1-0.8,2.8,0l22.6,23
		c0.8,0.8,0.8,2.1,0,2.8C88.2,162.5,87.7,162.7,87.2,162.7z"/>
</g>
<g>
	<path fill="#FEE092" d="M65.2,162.5c-0.5,0-0.9-0.2-1.3-0.5c-0.8-0.7-0.9-2-0.2-2.8l21.3-24.4c0.7-0.8,2-0.9,2.8-0.2
		c0.8,0.7,0.9,2,0.2,2.8l-21.3,24.4C66.4,162.2,65.8,162.5,65.2,162.5z"/>
</g>
<g>
	<path fill="#FEE092" d="M65.2,263.3c-0.5,0-0.9-0.2-1.3-0.5c-0.8-0.7-0.9-2-0.2-2.8l21.3-24.4c0.7-0.8,2-0.9,2.8-0.2
		c0.8,0.7,0.9,2,0.2,2.8l-21.3,24.4C66.4,263.1,65.8,263.3,65.2,263.3z"/>
</g>
<g>
	<path fill="#D8BA5B" d="M65.2,289c-0.5,0-0.9-0.2-1.3-0.5c-0.8-0.7-0.9-2-0.2-2.8l21.3-24.4c0.7-0.8,2-0.9,2.8-0.2
		c0.8,0.7,0.9,2,0.2,2.8l-21.3,24.4C66.4,288.8,65.8,289,65.2,289z"/>
</g>
<g>
	<path fill="#D8BA5B" d="M65.2,337.7c-0.5,0-0.9-0.2-1.3-0.5c-0.8-0.7-0.9-2-0.2-2.8l21.3-24.4c0.7-0.8,2-0.9,2.8-0.2
		c0.8,0.7,0.9,2,0.2,2.8L66.7,337C66.4,337.5,65.8,337.7,65.2,337.7z"/>
</g>
<g>
	<path fill="#D8BA5B" d="M65.2,386.9c-0.5,0-0.9-0.2-1.3-0.5c-0.8-0.7-0.9-2-0.2-2.8l21.3-24.4c0.7-0.8,2-0.9,2.8-0.2
		c0.8,0.7,0.9,2,0.2,2.8l-21.3,24.4C66.4,386.7,65.8,386.9,65.2,386.9z"/>
</g>
<g>
	<path fill="#D8BA5B" d="M87.2,262.7c-0.5,0-1-0.2-1.4-0.6l-22.6-23c-0.8-0.8-0.8-2.1,0-2.8c0.8-0.8,2.1-0.8,2.8,0l22.6,23
		c0.8,0.8,0.8,2.1,0,2.8C88.2,262.5,87.7,262.7,87.2,262.7z"/>
</g>
<g>
	<path fill="#FEE092" d="M87.2,286.6c-0.5,0-1-0.2-1.4-0.6l-22.6-23c-0.8-0.8-0.8-2.1,0-2.8c0.8-0.8,2.1-0.8,2.8,0l22.6,23
		c0.8,0.8,0.8,2.1,0,2.8C88.2,286.4,87.7,286.6,87.2,286.6z"/>
</g>
<g>
	<path fill="#D8BA5B" d="M87.2,311.4c-0.5,0-1-0.2-1.4-0.6l-22.6-23c-0.8-0.8-0.8-2.1,0-2.8c0.8-0.8,2.1-0.8,2.8,0l22.6,23
		c0.8,0.8,0.8,2.1,0,2.8C88.2,311.2,87.7,311.4,87.2,311.4z"/>
</g>
<g>
	<path fill="#FEE092" d="M87.2,337.1c-0.5,0-1-0.2-1.4-0.6l-22.6-23c-0.8-0.8-0.8-2.1,0-2.8c0.8-0.8,2.1-0.8,2.8,0l22.6,23
		c0.8,0.8,0.8,2.1,0,2.8C88.2,336.9,87.7,337.1,87.2,337.1z"/>
</g>
<g>
	<path fill="#D8BA5B" d="M87.2,361.9c-0.5,0-1-0.2-1.4-0.6l-22.6-23c-0.8-0.8-0.8-2.1,0-2.8c0.8-0.8,2.1-0.8,2.8,0l22.6,23
		c0.8,0.8,0.8,2.1,0,2.8C88.2,361.7,87.7,361.9,87.2,361.9z"/>
</g>
<g>
	<path fill="#FEE092" d="M87.2,385.8c-0.5,0-1-0.2-1.4-0.6l-22.6-23c-0.8-0.8-0.8-2.1,0-2.8c0.8-0.8,2.1-0.8,2.8,0l22.6,23
		c0.8,0.8,0.8,2.1,0,2.8C88.2,385.6,87.7,385.8,87.2,385.8z"/>
</g>
<g>
	<path fill="#FEE092" d="M65.2,312.9c-0.5,0-0.9-0.2-1.3-0.5c-0.8-0.7-0.9-2-0.2-2.8l21.3-24.4c0.7-0.8,2-0.9,2.8-0.2
		c0.8,0.7,0.9,2,0.2,2.8l-21.3,24.4C66.4,312.7,65.8,312.9,65.2,312.9z"/>
</g>
<g>
	<path fill="#FEE092" d="M65.2,361.6c-0.5,0-0.9-0.2-1.3-0.5c-0.8-0.7-0.9-2-0.2-2.8L85.1,334c0.7-0.8,2-0.9,2.8-0.2
		c0.8,0.7,0.9,2,0.2,2.8L66.7,361C66.4,361.4,65.8,361.6,65.2,361.6z"/>
</g>
<g>
	<path fill="#FEE092" d="M65.2,413c-0.5,0-0.9-0.2-1.3-0.5c-0.8-0.7-0.9-2-0.2-2.8l21.3-24.4c0.7-0.8,2-0.9,2.8-0.2
		c0.8,0.7,0.9,2,0.2,2.8l-21.3,24.4C66.4,412.7,65.8,413,65.2,413z"/>
</g>
<g>
	<path fill="#D8BA5B" d="M87.2,412.3c-0.5,0-1-0.2-1.4-0.6l-22.6-23c-0.8-0.8-0.8-2.1,0-2.8c0.8-0.8,2.1-0.8,2.8,0l22.6,23
		c0.8,0.8,0.8,2.1,0,2.8C88.2,412.1,87.7,412.3,87.2,412.3z"/>
</g>
<g>
	<path fill="#74CCD2" d="M624.5,193.7h-6c-0.8,0-1.5-0.7-1.5-1.5v-80.6c0-0.8,0.7-1.5,1.5-1.5s1.5,0.7,1.5,1.5v79.1h3v-79.1
		c0-0.8,0.7-1.5,1.5-1.5s1.5,0.7,1.5,1.5v80.6C626,193,625.3,193.7,624.5,193.7z"/>
</g>
<g>
	<path fill="#4BB0B9" d="M778.9,139.6c-0.6,0-1.1-0.2-1.5-0.7L756,114.6c-0.7-0.8-0.6-2.1,0.2-2.8c0.8-0.7,2.1-0.6,2.8,0.2
		l21.3,24.4c0.7,0.8,0.6,2.1-0.2,2.8C779.8,139.4,779.3,139.6,778.9,139.6z"/>
</g>
<g>
	<path fill="#74CCD2" d="M756.9,138.9c-0.5,0-1-0.2-1.4-0.6c-0.8-0.8-0.8-2,0-2.8l22.6-23c0.8-0.8,2-0.8,2.8,0c0.8,0.8,0.8,2,0,2.8
		l-22.6,23C757.9,138.7,757.4,138.9,756.9,138.9z"/>
</g>
<g>
	<path fill="#74CCD2" d="M839.2,112c-0.2,0-0.4,0-0.6-0.1l-70.8-32.2l-148.3,32c-0.8,0.2-1.6-0.3-1.8-1.2c-0.2-0.8,0.3-1.6,1.2-1.8
		l148.8-32.1c0.3-0.1,0.6,0,0.9,0.1l71.2,32.4c0.8,0.3,1.1,1.2,0.7,2C840.3,111.7,839.8,112,839.2,112z"/>
</g>
<g>
	<path fill="#74CCD2" d="M622.6,210.1c-0.9,0-1.6,0.7-1.6,1.6v7.8c-1.9,0.1-5.1,0.7-7.3,2.8c-1.8,1.7-2.7,3.9-2.7,6.7
		c0,0.7,0,1.3,0.1,1.9c0.4,3.7,2.2,5.8,4.4,6.9c2.3,1.2,5,1.4,7.2,1.4c0.3-0.6,0.5-1.3,0.4-2c0-0.4-0.1-0.8-0.3-1.1
		c-2.6,0-4.8-0.3-6.3-1.3c-1.2-0.8-2-2.1-2.3-4.1c-0.1-0.5-0.1-1.1-0.1-1.7c0-1.9,0.6-3.4,1.7-4.4c2.4-2.3,6.6-2,6.7-2
		c0.4,0,0.9-0.1,1.2-0.4c0.3-0.3,0.5-0.7,0.5-1.1v-9.3C624.1,210.8,623.4,210.1,622.6,210.1z"/>
</g>
<g>
	<path fill="#4BB0B9" d="M629.1,210.2c0,2.2-1.8,4-4,4h-7.4c-2.2,0-4-1.8-4-4v-14.7c0-2.2,1.8-4,4-4h7.4c2.2,0,4,1.8,4,4V210.2z"/>
</g>
<g>
	<path fill="#4BB0B9" d="M839,114.6H619.3c-1.7,0-3-1.3-3-3s1.3-3,3-3H839c1.7,0,3,1.3,3,3S840.6,114.6,839,114.6z"/>
</g>
<g>
	<path fill="#FEE092" d="M210.1,86.3h-6c-0.8,0-1.5-0.7-1.5-1.5V35.3c0-0.8,0.7-1.5,1.5-1.5s1.5,0.7,1.5,1.5v48.1h3V35.3
		c0-0.8,0.7-1.5,1.5-1.5s1.5,0.7,1.5,1.5v49.6C211.6,85.7,210.9,86.3,210.1,86.3z"/>
</g>
<g>
	<path fill="#D8BA5B" d="M65.2,89.8c-0.5,0-0.9-0.2-1.3-0.5c-0.8-0.7-0.9-2-0.2-2.8l21.3-24.4c0.7-0.8,2-0.9,2.8-0.2
		c0.8,0.7,0.9,2,0.2,2.8L66.7,89.1C66.4,89.6,65.8,89.8,65.2,89.8z"/>
</g>
<g>
	<path fill="#D8BA5B" d="M65.2,138.6c-0.5,0-0.9-0.2-1.3-0.5c-0.8-0.7-0.9-2-0.2-2.8l21.3-24.4c0.7-0.8,2-0.9,2.8-0.2
		c0.8,0.7,0.9,2,0.2,2.8l-21.3,24.4C66.4,138.3,65.8,138.6,65.2,138.6z"/>
</g>
<g>
	<path fill="#FEE092" d="M87.2,87.4c-0.5,0-1-0.2-1.4-0.6l-22.6-23c-0.8-0.8-0.8-2.1,0-2.8c0.8-0.8,2.1-0.8,2.8,0l22.6,23
		c0.8,0.8,0.8,2.1,0,2.8C88.2,87.2,87.7,87.4,87.2,87.4z"/>
</g>
<g>
	<path fill="#D8BA5B" d="M87.2,112.2c-0.5,0-1-0.2-1.4-0.6l-22.6-23c-0.8-0.8-0.8-2.1,0-2.8c0.8-0.8,2.1-0.8,2.8,0l22.6,23
		c0.8,0.8,0.8,2.1,0,2.8C88.2,112,87.7,112.2,87.2,112.2z"/>
</g>
<g>
	<path fill="#FEE092" d="M87.2,137.9c-0.5,0-1-0.2-1.4-0.6l-22.6-23c-0.8-0.8-0.8-2.1,0-2.8c0.8-0.8,2.1-0.8,2.8,0l22.6,23
		c0.8,0.8,0.8,2.1,0,2.8C88.2,137.7,87.7,137.9,87.2,137.9z"/>
</g>
<g>
	<path fill="#FEE092" d="M65.2,113.7c-0.5,0-0.9-0.2-1.3-0.5c-0.8-0.7-0.9-2-0.2-2.8l21.3-24.4c0.7-0.8,2-0.9,2.8-0.2
		c0.8,0.7,0.9,2,0.2,2.8l-21.3,24.4C66.4,113.5,65.8,113.7,65.2,113.7z"/>
</g>
<g>
	<path fill="#D8BA5B" d="M87.2,64c-0.5,0-1-0.2-1.4-0.6l-22.6-23c-0.8-0.8-0.8-2.1,0-2.8c0.8-0.8,2.1-0.8,2.8,0l22.6,23
		c0.8,0.8,0.8,2.1,0,2.8C88.2,63.8,87.7,64,87.2,64z"/>
</g>
<g>
	<path fill="#FEE092" d="M65.2,65.5c-0.5,0-0.9-0.2-1.3-0.5c-0.8-0.7-0.9-2-0.2-2.8l21.3-24.4c0.7-0.8,2-0.9,2.8-0.2
		c0.8,0.7,0.9,2,0.2,2.8L66.7,64.8C66.4,65.3,65.8,65.5,65.2,65.5z"/>
</g>
<g>
	<path fill="#FEE092" d="M4.9,35.7c-0.6,0-1.1-0.3-1.4-0.9c-0.3-0.8,0-1.6,0.7-2L75.5,0.4c0.3-0.1,0.6-0.2,1-0.1l133.2,32.1
		c0.8,0.2,1.3,1,1.1,1.8s-1,1.3-1.8,1.1L76.3,3.4L5.5,35.5C5.3,35.6,5.1,35.7,4.9,35.7z"/>
</g>
<g>
	<path fill="#FEE092" d="M206,102.7c0.9,0,1.6,0.7,1.6,1.6v7.8c1.9,0.1,5.1,0.7,7.3,2.8c1.8,1.7,2.7,3.9,2.7,6.7
		c0,0.7,0,1.3-0.1,1.9c-0.4,3.7-2.2,5.8-4.4,6.9c-2.3,1.2-5,1.4-7.2,1.4c-0.3-0.6-0.5-1.3-0.4-2c0-0.4,0.1-0.8,0.3-1.1
		c2.6,0,4.8-0.3,6.3-1.3c1.2-0.8,2-2.1,2.3-4.1c0.1-0.5,0.1-1.1,0.1-1.7c0-1.9-0.6-3.4-1.7-4.4c-2.4-2.3-6.6-2-6.7-2
		c-0.4,0-0.9-0.1-1.2-0.4c-0.3-0.3-0.5-0.7-0.5-1.1v-9.3C204.4,103.4,205.1,102.7,206,102.7z"/>
</g>
<g>
	<path fill="#D8BA5B" d="M199.4,102.9c0,2.2,1.8,4,4,4h7.4c2.2,0,4-1.8,4-4V88.2c0-2.2-1.8-4-4-4h-7.4c-2.2,0-4,1.8-4,4V102.9z"/>
</g>
<g>
	<path fill="#D8BA5B" d="M209.2,38.3H5.1c-1.7,0-3-1.3-3-3s1.3-3,3-3h204.1c1.7,0,3,1.3,3,3S210.9,38.3,209.2,38.3z"/>
</g>
<g>
	<path fill="#7CC790" d="M271.9,35.2h-11.5V33H286v2.2h-11.6v34h-2.5V35.2z"/>
	<path fill="#7CC790" d="M290,42.8h2.1l0.2,4.9h0.2c0.9-1.6,2-3,3.2-4c1.3-1,2.7-1.5,4.3-1.5c0.5,0,1,0,1.4,0.1
		c0.4,0.1,0.8,0.2,1.3,0.4l-0.5,2.2c-0.4-0.2-0.8-0.3-1.2-0.4c-0.3-0.1-0.8-0.1-1.3-0.1c-1.2,0-2.4,0.5-3.7,1.5
		c-1.3,1-2.5,2.8-3.5,5.3v18H290V42.8z"/>
	<path fill="#7CC790" d="M304.6,62.6c0-2.9,1.4-5.1,4.1-6.7s7.1-2.6,12.9-3.3c0-1,0-2-0.2-3c-0.2-1-0.5-1.9-0.9-2.7
		c-0.5-0.8-1.1-1.4-1.9-1.9c-0.8-0.5-1.9-0.7-3.2-0.7c-1.8,0-3.4,0.3-4.9,1c-1.5,0.7-2.6,1.4-3.5,2l-1.1-1.8
		c0.5-0.3,1.1-0.7,1.7-1.1c0.7-0.4,1.4-0.8,2.3-1.1c0.8-0.3,1.7-0.6,2.7-0.9c1-0.2,2-0.4,3.1-0.4c1.6,0,2.9,0.3,4,0.8
		c1.1,0.5,1.9,1.3,2.6,2.2c0.7,0.9,1.1,2,1.4,3.2c0.3,1.2,0.4,2.6,0.4,4v16.9h-2l-0.3-3.4h-0.1c-1.4,1.1-2.8,2-4.4,2.8
		c-1.6,0.8-3.2,1.2-5,1.2c-1.1,0-2.1-0.1-3-0.4c-0.9-0.3-1.7-0.7-2.4-1.3c-0.7-0.6-1.3-1.3-1.7-2.3
		C304.8,64.9,304.6,63.9,304.6,62.6z M307.2,62.5c0,1.9,0.5,3.3,1.6,4.1c1.1,0.8,2.4,1.2,3.9,1.2c1.5,0,3-0.4,4.4-1.1
		c1.4-0.7,2.9-1.8,4.6-3.2v-9c-2.7,0.3-5,0.7-6.8,1.2c-1.9,0.5-3.3,1-4.5,1.7c-1.1,0.7-2,1.4-2.4,2.3
		C307.4,60.5,307.2,61.5,307.2,62.5z"/>
	<path fill="#7CC790" d="M329.2,42.8h2.6l5.9,16.6c0.4,1.3,0.8,2.6,1.3,3.9c0.5,1.3,0.9,2.5,1.3,3.7h0.2c0.4-1.2,0.9-2.5,1.3-3.7
		c0.5-1.3,0.9-2.6,1.3-3.9l5.9-16.6h2.5l-9.8,26.4h-2.9L329.2,42.8z"/>
	<path fill="#7CC790" d="M358.7,36.4c-0.6,0-1.1-0.2-1.6-0.6c-0.4-0.4-0.6-0.9-0.6-1.5c0-0.7,0.2-1.2,0.6-1.6
		c0.4-0.4,0.9-0.6,1.6-0.6c0.6,0,1.1,0.2,1.6,0.6c0.4,0.4,0.6,0.9,0.6,1.6c0,0.6-0.2,1.1-0.6,1.5C359.8,36.2,359.3,36.4,358.7,36.4z
		 M357.4,42.8h2.4v26.4h-2.4V42.8z"/>
	<path fill="#7CC790" d="M368.2,64.4c1.1,1,2.3,1.8,3.6,2.4c1.3,0.6,2.9,1,4.8,1c2.1,0,3.7-0.5,4.7-1.6s1.6-2.3,1.6-3.7
		c0-0.8-0.2-1.5-0.6-2.1c-0.4-0.6-0.9-1.2-1.5-1.6c-0.6-0.4-1.3-0.8-2.1-1.2c-0.8-0.3-1.5-0.6-2.3-0.9c-1-0.4-2-0.8-3-1.2
		c-1-0.4-1.9-0.9-2.7-1.5c-0.8-0.6-1.5-1.2-2-2c-0.5-0.8-0.7-1.8-0.7-2.9c0-1,0.2-1.9,0.6-2.7c0.4-0.9,0.9-1.6,1.6-2.3
		c0.7-0.6,1.6-1.1,2.7-1.5c1-0.4,2.3-0.6,3.7-0.6c1.4,0,2.8,0.3,4.1,0.8c1.3,0.5,2.5,1.2,3.4,2l-1.3,1.7c-0.9-0.7-1.8-1.2-2.8-1.7
		c-1-0.5-2.2-0.7-3.5-0.7c-1,0-1.9,0.1-2.6,0.4c-0.7,0.3-1.3,0.6-1.8,1.1s-0.9,1-1.1,1.5c-0.2,0.6-0.4,1.2-0.4,1.8
		c0,0.8,0.2,1.4,0.5,2c0.3,0.5,0.8,1,1.4,1.4c0.6,0.4,1.3,0.8,2,1.1c0.8,0.3,1.5,0.6,2.3,0.9c1,0.4,2.1,0.8,3.1,1.2
		c1,0.4,2,0.9,2.8,1.5c0.8,0.6,1.5,1.3,2,2.2c0.5,0.9,0.8,1.9,0.8,3.2c0,1-0.2,1.9-0.6,2.8c-0.4,0.9-1,1.7-1.7,2.4
		c-0.8,0.7-1.7,1.2-2.8,1.6c-1.1,0.4-2.4,0.6-3.8,0.6c-2,0-3.8-0.4-5.4-1.1c-1.6-0.7-3.1-1.6-4.2-2.6L368.2,64.4z"/>
	<path fill="#7CC790" d="M403.5,33h9.8c3.7,0,6.6,0.7,8.7,2.1c2.2,1.4,3.2,3.6,3.2,6.7c0,1.9-0.5,3.6-1.6,5
		c-1.1,1.4-2.7,2.4-4.8,2.9v0.2c2.7,0.4,4.8,1.3,6.3,2.8c1.5,1.4,2.3,3.4,2.3,6c0,1.8-0.3,3.3-1,4.6s-1.5,2.4-2.7,3.3
		c-1.2,0.9-2.6,1.5-4.2,2c-1.7,0.4-3.5,0.7-5.6,0.7h-10.5V33z M412.3,48.9c3.7,0,6.4-0.6,8-1.8c1.6-1.2,2.4-3,2.4-5.4
		c0-2.3-0.9-4-2.6-5.1s-4.3-1.6-7.6-1.6h-6.5v13.9H412.3z M413.4,67.1c3.6,0,6.5-0.7,8.6-2c2.1-1.4,3.1-3.5,3.1-6.4
		c0-2.6-1-4.5-3-5.8c-2-1.3-4.9-1.9-8.6-1.9h-7.3v16.2H413.4z"/>
	<path fill="#7CC790" d="M434.7,42.8h2.4v16.6c0,2.8,0.5,4.9,1.4,6.2c0.9,1.3,2.5,2,4.6,2c1.6,0,3-0.4,4.3-1.3
		c1.3-0.9,2.7-2.2,4.2-4.1V42.8h2.4v26.4h-2l-0.3-4.4h-0.1c-1.3,1.5-2.6,2.8-4.1,3.7c-1.4,0.9-3.1,1.4-4.9,1.4c-2.8,0-4.8-0.8-6-2.5
		c-1.3-1.6-1.9-4.2-1.9-7.6V42.8z"/>
	<path fill="#7CC790" d="M465.4,36.4c-0.6,0-1.1-0.2-1.6-0.6c-0.4-0.4-0.6-0.9-0.6-1.5c0-0.7,0.2-1.2,0.6-1.6
		c0.4-0.4,0.9-0.6,1.6-0.6c0.6,0,1.1,0.2,1.6,0.6c0.4,0.4,0.6,0.9,0.6,1.6c0,0.6-0.2,1.1-0.6,1.5C466.5,36.2,466,36.4,465.4,36.4z
		 M464.1,42.8h2.4v26.4h-2.4V42.8z"/>
	<path fill="#7CC790" d="M476.7,29.7h2.4V66c0,0.6,0.1,1,0.3,1.3s0.5,0.4,0.8,0.4c0.1,0,0.2,0,0.4,0c0.1,0,0.3,0,0.6-0.1l0.4,2
		c-0.3,0.1-0.5,0.1-0.8,0.2c-0.3,0.1-0.6,0.1-1,0.1c-2.2,0-3.2-1.4-3.2-4.2V29.7z"/>
	<path fill="#7CC790" d="M487.6,56.1c0-2.1,0.3-4.1,0.9-5.8c0.6-1.7,1.5-3.2,2.6-4.4c1.1-1.2,2.3-2.1,3.7-2.8c1.4-0.6,2.9-1,4.5-1
		c1.6,0,3,0.3,4.2,0.9c1.2,0.6,2.4,1.4,3.8,2.4l-0.1-4.8V29.7h2.4v39.5h-2.1l-0.2-3.4h-0.2c-1.1,1.1-2.3,2-3.8,2.8
		c-1.4,0.8-3.1,1.2-4.8,1.2c-3.3,0-6-1.2-8-3.5C488.6,64,487.6,60.5,487.6,56.1z M490.1,56.1c0,1.8,0.2,3.4,0.6,4.8
		c0.4,1.4,0.9,2.6,1.7,3.7c0.7,1,1.6,1.8,2.7,2.4c1.1,0.6,2.3,0.9,3.7,0.9c1.5,0,2.9-0.4,4.2-1.1c1.3-0.8,2.7-1.8,4.1-3.2V47.7
		c-1.4-1.2-2.7-2.1-3.9-2.6c-1.2-0.5-2.5-0.8-3.8-0.8c-1.3,0-2.5,0.3-3.7,0.9c-1.1,0.6-2.1,1.4-2.9,2.5c-0.8,1-1.5,2.3-2,3.7
		C490.4,52.9,490.1,54.4,490.1,56.1z"/>
	<path fill="#7CC790" d="M529.7,62.7c1.3,1.5,2.9,2.7,4.7,3.6c1.8,0.9,3.8,1.3,5.9,1.3c2.8,0,5-0.7,6.6-2c1.6-1.3,2.4-3.1,2.4-5.3
		c0-1.1-0.2-2.1-0.5-2.9c-0.3-0.8-0.8-1.4-1.4-2c-0.6-0.6-1.3-1.1-2.1-1.5c-0.8-0.4-1.6-0.8-2.5-1.2l-5.5-2.5
		c-0.8-0.3-1.6-0.7-2.5-1.2c-0.9-0.5-1.6-1.1-2.4-1.8c-0.7-0.7-1.3-1.6-1.8-2.5c-0.5-1-0.7-2.1-0.7-3.5c0-1.3,0.3-2.5,0.8-3.6
		c0.5-1.1,1.3-2,2.2-2.8c0.9-0.8,2.1-1.4,3.4-1.8c1.3-0.4,2.7-0.7,4.2-0.7c2.2,0,4.2,0.4,5.9,1.3c1.7,0.9,3.1,1.9,4.2,3.1l-1.4,1.7
		c-1.1-1.1-2.3-2-3.7-2.7c-1.4-0.7-3.1-1-4.9-1c-2.4,0-4.4,0.6-5.8,1.8c-1.5,1.2-2.2,2.8-2.2,4.7c0,1.1,0.2,2,0.6,2.7
		c0.4,0.7,0.9,1.4,1.5,1.9c0.6,0.5,1.3,1,2,1.4c0.7,0.4,1.4,0.7,2.1,1l5.5,2.4c1,0.4,2,0.9,2.9,1.5c0.9,0.5,1.7,1.2,2.4,1.9
		c0.7,0.7,1.3,1.6,1.7,2.6c0.4,1,0.6,2.2,0.6,3.6c0,1.4-0.3,2.7-0.8,3.9c-0.5,1.2-1.3,2.2-2.3,3.1c-1,0.9-2.2,1.5-3.7,2
		s-3,0.7-4.8,0.7c-2.6,0-5-0.5-7-1.5c-2.1-1-3.8-2.3-5.2-3.9L529.7,62.7z"/>
	<path fill="#7CC790" d="M560.5,36.4c-0.6,0-1.1-0.2-1.6-0.6c-0.4-0.4-0.6-0.9-0.6-1.5c0-0.7,0.2-1.2,0.6-1.6
		c0.4-0.4,0.9-0.6,1.6-0.6c0.6,0,1.1,0.2,1.6,0.6c0.4,0.4,0.6,0.9,0.6,1.6c0,0.6-0.2,1.1-0.6,1.5C561.7,36.2,561.2,36.4,560.5,36.4z
		 M559.3,42.8h2.4v26.4h-2.4V42.8z"/>
	<path fill="#7CC790" d="M572.5,44.9h-4.1V43l4.2-0.2l0.3-7.6h2.1v7.6h7.6v2.1H575v17.2c0,0.8,0.1,1.6,0.2,2.3
		c0.1,0.7,0.4,1.3,0.7,1.8c0.3,0.5,0.8,0.9,1.3,1.2s1.3,0.4,2.2,0.4c0.5,0,1.1-0.1,1.7-0.2c0.6-0.2,1.1-0.4,1.6-0.6l0.7,2
		c-0.8,0.3-1.5,0.5-2.3,0.7c-0.8,0.2-1.4,0.3-2,0.3c-1.3,0-2.3-0.2-3.2-0.6c-0.8-0.4-1.5-0.9-2-1.6c-0.5-0.7-0.9-1.5-1.1-2.5
		c-0.2-1-0.3-2.1-0.3-3.2V44.9z"/>
	<path fill="#7CC790" d="M586.3,56.1c0-2.2,0.3-4.1,1-5.8c0.6-1.7,1.5-3.2,2.6-4.4c1.1-1.2,2.3-2.1,3.7-2.8c1.4-0.6,2.8-1,4.3-1
		c3.2,0,5.6,1.1,7.4,3.2c1.8,2.1,2.7,5.1,2.7,9c0,0.3,0,0.7,0,1s0,0.7-0.1,1h-19c0,1.6,0.3,3.2,0.8,4.6c0.5,1.4,1.1,2.6,2,3.6
		c0.9,1,1.9,1.8,3.1,2.4c1.2,0.6,2.6,0.9,4.1,0.9c1.4,0,2.7-0.2,3.9-0.6c1.2-0.4,2.2-1,3.2-1.7l1,1.9c-1.1,0.6-2.2,1.2-3.5,1.8
		c-1.3,0.5-2.9,0.8-4.8,0.8c-1.7,0-3.3-0.3-4.8-0.9c-1.5-0.6-2.8-1.5-3.9-2.7c-1.1-1.2-2-2.6-2.6-4.3
		C586.6,60.2,586.3,58.2,586.3,56.1z M605.6,54.5c0-3.4-0.7-6-2.1-7.7c-1.4-1.7-3.3-2.6-5.7-2.6c-1.1,0-2.2,0.2-3.2,0.7
		c-1,0.5-2,1.2-2.8,2c-0.8,0.9-1.5,2-2,3.2c-0.5,1.3-0.9,2.7-1,4.3H605.6z"/>
</g>
<g>
	<path fill="#7C7F81" d="M316.2,90.7c0.3,0.3,0.7,0.6,1.2,0.8s0.9,0.3,1.4,0.3c0.6,0,1.1-0.1,1.4-0.4c0.3-0.3,0.5-0.6,0.5-1.1
		c0-0.2,0-0.4-0.1-0.6c-0.1-0.2-0.2-0.3-0.3-0.4c-0.1-0.1-0.3-0.2-0.5-0.3c-0.2-0.1-0.4-0.2-0.6-0.3l-1.3-0.6
		c-0.2-0.1-0.4-0.2-0.7-0.3c-0.2-0.1-0.4-0.3-0.6-0.5c-0.2-0.2-0.3-0.4-0.4-0.7s-0.2-0.6-0.2-0.9c0-0.3,0.1-0.7,0.2-1
		s0.3-0.6,0.6-0.8c0.3-0.2,0.6-0.4,0.9-0.5c0.3-0.1,0.7-0.2,1.2-0.2c0.6,0,1.1,0.1,1.5,0.3s0.9,0.5,1.2,0.8l-0.6,0.8
		c-0.3-0.3-0.6-0.5-0.9-0.6c-0.3-0.2-0.7-0.2-1.2-0.2c-0.5,0-0.9,0.1-1.2,0.4c-0.3,0.2-0.5,0.6-0.5,1c0,0.2,0,0.4,0.1,0.6
		c0.1,0.2,0.2,0.3,0.4,0.4c0.1,0.1,0.3,0.2,0.5,0.3c0.2,0.1,0.4,0.2,0.5,0.2l1.3,0.6c0.3,0.1,0.5,0.2,0.7,0.4
		c0.2,0.1,0.4,0.3,0.6,0.5c0.2,0.2,0.3,0.4,0.4,0.7s0.1,0.6,0.1,0.9c0,0.4-0.1,0.7-0.2,1c-0.1,0.3-0.4,0.6-0.6,0.8
		c-0.3,0.2-0.6,0.4-1,0.6s-0.8,0.2-1.3,0.2c-0.6,0-1.2-0.1-1.8-0.4c-0.6-0.2-1-0.6-1.4-1L316.2,90.7z"/>
	<path fill="#7C7F81" d="M323.1,89.3c0-0.6,0.1-1.1,0.3-1.5s0.4-0.8,0.7-1.1c0.3-0.3,0.6-0.5,1-0.7c0.4-0.2,0.7-0.2,1.1-0.2
		c0.4,0,0.8,0.1,1.2,0.2c0.3,0.1,0.6,0.4,0.9,0.6s0.4,0.6,0.5,1c0.1,0.4,0.2,0.8,0.2,1.3c0,0.3,0,0.5,0,0.6h-4.6
		c0,0.7,0.3,1.3,0.7,1.8s0.9,0.6,1.6,0.6c0.3,0,0.6,0,0.9-0.1c0.3-0.1,0.5-0.2,0.8-0.4l0.4,0.8c-0.3,0.2-0.6,0.4-1,0.5
		s-0.8,0.2-1.2,0.2c-0.5,0-0.9-0.1-1.3-0.2c-0.4-0.2-0.7-0.4-1-0.7s-0.5-0.7-0.7-1.1C323.2,90.4,323.1,89.9,323.1,89.3z M327.8,88.8
		c0-0.7-0.1-1.2-0.4-1.6s-0.7-0.6-1.2-0.6c-0.2,0-0.5,0-0.7,0.1c-0.2,0.1-0.4,0.2-0.6,0.4c-0.2,0.2-0.3,0.4-0.4,0.7
		c-0.1,0.3-0.2,0.6-0.2,0.9H327.8z"/>
	<path fill="#7C7F81" d="M330.1,89.3c0-0.6,0.1-1.1,0.3-1.5s0.4-0.8,0.7-1.1c0.3-0.3,0.6-0.5,1-0.7c0.4-0.2,0.7-0.2,1.1-0.2
		c0.4,0,0.8,0.1,1.2,0.2c0.3,0.1,0.6,0.4,0.9,0.6c0.2,0.3,0.4,0.6,0.5,1c0.1,0.4,0.2,0.8,0.2,1.3c0,0.3,0,0.5,0,0.6h-4.6
		c0,0.7,0.3,1.3,0.7,1.8c0.4,0.4,0.9,0.6,1.6,0.6c0.3,0,0.6,0,0.9-0.1c0.3-0.1,0.5-0.2,0.8-0.4l0.4,0.8c-0.3,0.2-0.6,0.4-1,0.5
		c-0.4,0.1-0.8,0.2-1.2,0.2c-0.5,0-0.9-0.1-1.3-0.2c-0.4-0.2-0.7-0.4-1-0.7s-0.5-0.7-0.7-1.1C330.1,90.4,330.1,89.9,330.1,89.3z
		 M334.8,88.8c0-0.7-0.1-1.2-0.4-1.6s-0.7-0.6-1.2-0.6c-0.2,0-0.5,0-0.7,0.1c-0.2,0.1-0.4,0.2-0.6,0.4c-0.2,0.2-0.3,0.4-0.4,0.7
		c-0.1,0.3-0.2,0.6-0.2,0.9H334.8z"/>
	<path fill="#7C7F81" d="M339.5,85.9h1.2l1,3.9c0.1,0.3,0.1,0.6,0.2,1s0.1,0.6,0.2,0.9h0.1c0.1-0.3,0.1-0.6,0.2-0.9
		c0.1-0.3,0.2-0.6,0.2-0.9l1-3.9h1.1l1.1,3.9c0.1,0.3,0.2,0.6,0.2,1s0.2,0.6,0.2,0.9h0.1c0.1-0.3,0.1-0.6,0.2-0.9s0.1-0.6,0.2-1
		l1-3.9h1.1l-1.8,6.8h-1.4l-1-3.7c-0.1-0.3-0.2-0.6-0.2-1c-0.1-0.3-0.1-0.6-0.2-1h-0.1c-0.1,0.3-0.1,0.7-0.2,1
		c-0.1,0.3-0.2,0.6-0.3,1l-1,3.6h-1.3L339.5,85.9z"/>
	<path fill="#7C7F81" d="M350.3,82.8h1.1v2.7l0,1.4c0.3-0.3,0.7-0.6,1-0.8s0.8-0.3,1.2-0.3c0.7,0,1.2,0.2,1.6,0.7
		c0.3,0.4,0.5,1.1,0.5,2v4.3h-1.1v-4.2c0-0.6-0.1-1.1-0.3-1.4s-0.5-0.4-1-0.4c-0.4,0-0.7,0.1-0.9,0.3s-0.6,0.4-0.9,0.8v4.9h-1.1
		V82.8z"/>
	<path fill="#7C7F81" d="M357.4,91c0-0.7,0.3-1.3,1-1.7c0.7-0.4,1.7-0.7,3.2-0.8c0-0.2,0-0.4-0.1-0.6s-0.1-0.4-0.2-0.5
		s-0.2-0.3-0.4-0.4s-0.4-0.1-0.7-0.1c-0.4,0-0.8,0.1-1.1,0.2s-0.6,0.3-0.9,0.5l-0.5-0.8c0.3-0.2,0.7-0.4,1.2-0.6
		c0.5-0.2,1-0.3,1.5-0.3c0.8,0,1.4,0.3,1.8,0.8s0.6,1.2,0.6,2v4.2h-1l-0.1-0.8h0c-0.3,0.3-0.7,0.5-1.1,0.7c-0.4,0.2-0.8,0.3-1.2,0.3
		c-0.6,0-1.1-0.2-1.4-0.5S357.4,91.6,357.4,91z M358.5,90.9c0,0.4,0.1,0.7,0.3,0.8s0.5,0.3,0.8,0.3c0.3,0,0.6-0.1,0.9-0.2
		c0.3-0.2,0.6-0.4,0.9-0.7v-1.9c-0.6,0.1-1,0.2-1.4,0.3c-0.4,0.1-0.7,0.2-0.9,0.4c-0.2,0.1-0.4,0.3-0.5,0.5
		C358.6,90.5,358.5,90.7,358.5,90.9z"/>
	<path fill="#7C7F81" d="M364.9,86.9h-1V86l1.1-0.1l0.1-1.9h1v1.9h1.8v0.9h-1.8v3.8c0,0.4,0.1,0.7,0.2,1c0.2,0.2,0.4,0.3,0.8,0.3
		c0.1,0,0.3,0,0.4-0.1c0.1,0,0.3-0.1,0.4-0.1l0.2,0.9c-0.2,0.1-0.4,0.1-0.6,0.2c-0.2,0.1-0.4,0.1-0.7,0.1c-0.4,0-0.7-0.1-0.9-0.2
		s-0.4-0.3-0.6-0.5c-0.2-0.2-0.3-0.4-0.3-0.7c-0.1-0.3-0.1-0.6-0.1-0.9V86.9z"/>
	<path fill="#7C7F81" d="M371.5,85.9h1.2l1,3.9c0.1,0.3,0.1,0.6,0.2,1s0.1,0.6,0.2,0.9h0.1c0.1-0.3,0.1-0.6,0.2-0.9
		c0.1-0.3,0.2-0.6,0.2-0.9l1.1-3.9h1.1l1.1,3.9c0.1,0.3,0.2,0.6,0.2,1s0.2,0.6,0.2,0.9h0.1c0.1-0.3,0.1-0.6,0.2-0.9s0.1-0.6,0.2-1
		l1-3.9h1.1l-1.8,6.8h-1.4l-1-3.7c-0.1-0.3-0.2-0.6-0.2-1c-0.1-0.3-0.1-0.6-0.2-1h-0.1c-0.1,0.3-0.1,0.7-0.2,1
		c-0.1,0.3-0.2,0.6-0.3,1l-1,3.6h-1.3L371.5,85.9z"/>
	<path fill="#7C7F81" d="M381.7,89.3c0-0.6,0.1-1.1,0.3-1.5s0.4-0.8,0.7-1.1c0.3-0.3,0.6-0.5,1-0.7c0.4-0.2,0.7-0.2,1.1-0.2
		c0.4,0,0.8,0.1,1.2,0.2c0.3,0.1,0.6,0.4,0.9,0.6c0.2,0.3,0.4,0.6,0.5,1c0.1,0.4,0.2,0.8,0.2,1.3c0,0.3,0,0.5,0,0.6h-4.6
		c0,0.7,0.3,1.3,0.7,1.8c0.4,0.4,0.9,0.6,1.6,0.6c0.3,0,0.6,0,0.9-0.1c0.3-0.1,0.5-0.2,0.8-0.4l0.4,0.8c-0.3,0.2-0.6,0.4-1,0.5
		c-0.4,0.1-0.8,0.2-1.2,0.2c-0.5,0-0.9-0.1-1.3-0.2c-0.4-0.2-0.7-0.4-1-0.7s-0.5-0.7-0.7-1.1C381.8,90.4,381.7,89.9,381.7,89.3z
		 M386.4,88.8c0-0.7-0.1-1.2-0.4-1.6s-0.7-0.6-1.2-0.6c-0.2,0-0.5,0-0.7,0.1c-0.2,0.1-0.4,0.2-0.6,0.4c-0.2,0.2-0.3,0.4-0.4,0.7
		c-0.1,0.3-0.2,0.6-0.2,0.9H386.4z"/>
	<path fill="#7C7F81" d="M388.7,86.2c0.4-0.2,0.6-0.5,0.8-0.7c0.2-0.3,0.3-0.6,0.3-1c0,0-0.1,0-0.1,0c-0.2,0-0.4-0.1-0.5-0.2
		c-0.1-0.1-0.2-0.3-0.2-0.5c0-0.2,0.1-0.4,0.2-0.6c0.1-0.1,0.3-0.2,0.5-0.2c0.3,0,0.5,0.1,0.6,0.3c0.2,0.2,0.2,0.5,0.2,0.9
		c0,0.6-0.1,1-0.4,1.4c-0.3,0.4-0.6,0.7-1.1,1L388.7,86.2z"/>
	<path fill="#7C7F81" d="M391.9,85.9h1l0.1,1.2h0c0.2-0.4,0.5-0.8,0.8-1c0.3-0.3,0.7-0.4,1.1-0.4c0.3,0,0.5,0,0.7,0.1l-0.2,1
		c-0.1,0-0.2-0.1-0.3-0.1c-0.1,0-0.2,0-0.4,0c-0.3,0-0.6,0.1-0.9,0.4c-0.3,0.2-0.6,0.6-0.8,1.2v4.4h-1.1V85.9z"/>
	<path fill="#7C7F81" d="M396.2,89.3c0-0.6,0.1-1.1,0.3-1.5s0.4-0.8,0.7-1.1c0.3-0.3,0.6-0.5,1-0.7c0.4-0.2,0.7-0.2,1.1-0.2
		c0.4,0,0.8,0.1,1.2,0.2c0.3,0.1,0.6,0.4,0.9,0.6s0.4,0.6,0.5,1c0.1,0.4,0.2,0.8,0.2,1.3c0,0.3,0,0.5,0,0.6h-4.6
		c0,0.7,0.3,1.3,0.7,1.8s0.9,0.6,1.6,0.6c0.3,0,0.6,0,0.9-0.1c0.3-0.1,0.5-0.2,0.8-0.4l0.4,0.8c-0.3,0.2-0.6,0.4-1,0.5
		s-0.8,0.2-1.2,0.2c-0.5,0-0.9-0.1-1.3-0.2c-0.4-0.2-0.7-0.4-1-0.7s-0.5-0.7-0.7-1.1C396.3,90.4,396.2,89.9,396.2,89.3z M400.9,88.8
		c0-0.7-0.1-1.2-0.4-1.6s-0.7-0.6-1.2-0.6c-0.2,0-0.5,0-0.7,0.1c-0.2,0.1-0.4,0.2-0.6,0.4c-0.2,0.2-0.3,0.4-0.4,0.7
		c-0.1,0.3-0.2,0.6-0.2,0.9H400.9z"/>
	<path fill="#7C7F81" d="M406.5,82.8h1.1v2.7l0,1.2c0.3-0.3,0.6-0.5,1-0.7c0.4-0.2,0.7-0.3,1.1-0.3c0.4,0,0.8,0.1,1.2,0.2
		c0.3,0.2,0.6,0.4,0.8,0.7c0.2,0.3,0.4,0.7,0.5,1.1c0.1,0.4,0.2,0.9,0.2,1.4c0,0.6-0.1,1.1-0.2,1.6c-0.2,0.5-0.4,0.8-0.6,1.2
		s-0.6,0.6-0.9,0.7c-0.4,0.2-0.7,0.2-1.1,0.2c-0.3,0-0.6-0.1-1-0.2s-0.7-0.4-1-0.6h0l-0.1,0.7h-0.9V82.8z M407.6,91.2
		c0.3,0.3,0.6,0.4,0.9,0.6s0.6,0.2,0.8,0.2c0.3,0,0.5-0.1,0.8-0.2c0.2-0.1,0.4-0.3,0.6-0.5c0.2-0.2,0.3-0.5,0.4-0.8
		c0.1-0.3,0.1-0.7,0.1-1.1c0-0.4,0-0.7-0.1-1s-0.2-0.6-0.3-0.8c-0.1-0.2-0.3-0.4-0.6-0.5c-0.2-0.1-0.5-0.2-0.8-0.2
		c-0.6,0-1.2,0.3-1.8,0.9V91.2z"/>
	<path fill="#7C7F81" d="M414.1,85.9h1.2v4.2c0,0.6,0.1,1.1,0.3,1.4c0.2,0.3,0.5,0.4,1,0.4c0.4,0,0.7-0.1,0.9-0.3
		c0.3-0.2,0.6-0.5,0.9-0.9v-4.8h1.1v6.8h-1l-0.1-1.1h0c-0.3,0.4-0.7,0.7-1,0.9c-0.4,0.2-0.8,0.3-1.2,0.3c-0.7,0-1.3-0.2-1.6-0.7
		c-0.3-0.4-0.5-1.1-0.5-2V85.9z"/>
	<path fill="#7C7F81" d="M422.2,84.5c-0.2,0-0.4-0.1-0.6-0.2c-0.2-0.1-0.2-0.3-0.2-0.5c0-0.2,0.1-0.4,0.2-0.5
		c0.2-0.1,0.3-0.2,0.6-0.2s0.4,0.1,0.6,0.2c0.2,0.1,0.2,0.3,0.2,0.5c0,0.2-0.1,0.4-0.2,0.5C422.6,84.4,422.4,84.5,422.2,84.5z
		 M421.6,85.9h1.1v6.8h-1.1V85.9z"/>
	<path fill="#7C7F81" d="M424.9,82.8h1.1v8.7c0,0.2,0,0.3,0.1,0.4s0.1,0.1,0.2,0.1c0,0,0.1,0,0.1,0s0.1,0,0.1,0l0.2,0.9
		c-0.1,0-0.2,0.1-0.3,0.1c-0.1,0-0.2,0-0.4,0c-0.4,0-0.8-0.1-0.9-0.4s-0.3-0.6-0.3-1.1V82.8z"/>
	<path fill="#7C7F81" d="M427.8,89.3c0-0.6,0.1-1,0.2-1.5c0.2-0.4,0.4-0.8,0.7-1.1c0.3-0.3,0.6-0.5,0.9-0.7c0.4-0.2,0.7-0.3,1.1-0.3
		c0.4,0,0.7,0.1,1,0.2c0.3,0.1,0.6,0.3,0.9,0.6l-0.1-1.2v-2.6h1.2v10h-1l-0.1-0.8h0c-0.3,0.3-0.6,0.5-0.9,0.7
		c-0.3,0.2-0.7,0.3-1.1,0.3c-0.9,0-1.5-0.3-2.1-0.9C428,91.4,427.8,90.5,427.8,89.3z M429,89.3c0,0.8,0.2,1.5,0.5,1.9
		c0.3,0.5,0.8,0.7,1.4,0.7c0.3,0,0.6-0.1,0.9-0.2c0.3-0.2,0.6-0.4,0.8-0.7v-3.6c-0.3-0.3-0.6-0.4-0.8-0.6c-0.3-0.1-0.5-0.2-0.8-0.2
		c-0.3,0-0.5,0.1-0.8,0.2s-0.4,0.3-0.6,0.5c-0.2,0.2-0.3,0.5-0.4,0.8S429,88.9,429,89.3z"/>
	<path fill="#7C7F81" d="M436.5,84.5c-0.2,0-0.4-0.1-0.6-0.2c-0.2-0.1-0.2-0.3-0.2-0.5c0-0.2,0.1-0.4,0.2-0.5
		c0.2-0.1,0.3-0.2,0.6-0.2s0.4,0.1,0.6,0.2c0.2,0.1,0.2,0.3,0.2,0.5c0,0.2-0.1,0.4-0.2,0.5C436.9,84.4,436.7,84.5,436.5,84.5z
		 M435.9,85.9h1.1v6.8h-1.1V85.9z"/>
	<path fill="#7C7F81" d="M439.1,85.9h1l0.1,1h0c0.3-0.3,0.7-0.6,1-0.8s0.8-0.3,1.3-0.3c0.7,0,1.2,0.2,1.6,0.7c0.3,0.4,0.5,1.1,0.5,2
		v4.3h-1.1v-4.2c0-0.6-0.1-1.1-0.3-1.4s-0.5-0.4-1-0.4c-0.4,0-0.7,0.1-0.9,0.3s-0.6,0.4-0.9,0.8v4.9h-1.1V85.9z"/>
	<path fill="#7C7F81" d="M446.1,94c0-0.3,0.1-0.6,0.3-0.8c0.2-0.3,0.4-0.5,0.7-0.7v-0.1c-0.2-0.1-0.3-0.2-0.4-0.4
		c-0.1-0.2-0.2-0.4-0.2-0.7c0-0.3,0.1-0.5,0.2-0.8c0.2-0.2,0.3-0.4,0.5-0.5V90c-0.2-0.2-0.4-0.4-0.6-0.7c-0.2-0.3-0.3-0.7-0.3-1.1
		c0-0.4,0.1-0.7,0.2-1c0.1-0.3,0.3-0.6,0.6-0.8s0.5-0.4,0.8-0.5c0.3-0.1,0.6-0.2,1-0.2c0.2,0,0.4,0,0.5,0s0.3,0.1,0.4,0.1h2.4v0.9
		h-1.4c0.2,0.2,0.3,0.4,0.4,0.6s0.2,0.5,0.2,0.8c0,0.4-0.1,0.7-0.2,1c-0.1,0.3-0.3,0.5-0.5,0.7c-0.2,0.2-0.5,0.4-0.8,0.5
		c-0.3,0.1-0.6,0.2-1,0.2c-0.2,0-0.3,0-0.5-0.1c-0.2,0-0.3-0.1-0.5-0.2c-0.1,0.1-0.2,0.2-0.3,0.3c-0.1,0.1-0.1,0.3-0.1,0.5
		c0,0.2,0.1,0.4,0.3,0.5c0.2,0.1,0.5,0.2,1,0.2h1.3c0.8,0,1.4,0.1,1.8,0.4c0.4,0.3,0.6,0.7,0.6,1.2c0,0.3-0.1,0.6-0.2,0.9
		c-0.2,0.3-0.4,0.5-0.7,0.7c-0.3,0.2-0.7,0.4-1.1,0.5c-0.4,0.1-0.9,0.2-1.4,0.2c-0.4,0-0.8,0-1.1-0.1c-0.3-0.1-0.6-0.2-0.9-0.4
		c-0.2-0.2-0.4-0.4-0.6-0.6C446.2,94.6,446.1,94.3,446.1,94z M447.1,93.9c0,0.4,0.2,0.7,0.5,0.9c0.3,0.2,0.8,0.3,1.4,0.3
		c0.3,0,0.6,0,0.9-0.1c0.3-0.1,0.5-0.2,0.7-0.3s0.3-0.3,0.4-0.4c0.1-0.2,0.2-0.3,0.2-0.5c0-0.3-0.1-0.5-0.3-0.7
		c-0.2-0.1-0.6-0.2-1-0.2h-1.2c-0.1,0-0.3,0-0.4,0c-0.2,0-0.3,0-0.5-0.1c-0.2,0.2-0.4,0.4-0.5,0.6C447.2,93.5,447.1,93.7,447.1,93.9
		z M448.9,89.8c0.2,0,0.4,0,0.6-0.1c0.2-0.1,0.3-0.2,0.5-0.3c0.1-0.1,0.2-0.3,0.3-0.5c0.1-0.2,0.1-0.4,0.1-0.7
		c0-0.5-0.1-0.9-0.4-1.2c-0.3-0.3-0.6-0.4-1-0.4s-0.7,0.1-1,0.4c-0.3,0.3-0.4,0.7-0.4,1.2c0,0.3,0,0.5,0.1,0.7
		c0.1,0.2,0.2,0.4,0.3,0.5c0.1,0.1,0.3,0.2,0.5,0.3S448.8,89.8,448.9,89.8z"/>
	<path fill="#7C7F81" d="M456.5,85.9h1l0.1,1h0c0.3-0.3,0.7-0.6,1-0.8s0.8-0.3,1.3-0.3c0.7,0,1.2,0.2,1.6,0.7c0.3,0.4,0.5,1.1,0.5,2
		v4.3h-1.1v-4.2c0-0.6-0.1-1.1-0.3-1.4s-0.5-0.4-1-0.4c-0.4,0-0.7,0.1-0.9,0.3s-0.6,0.4-0.9,0.8v4.9h-1.1V85.9z"/>
	<path fill="#7C7F81" d="M463.6,89.3c0-0.6,0.1-1.1,0.3-1.5s0.4-0.8,0.7-1.1c0.3-0.3,0.6-0.5,1-0.7c0.4-0.2,0.7-0.2,1.1-0.2
		c0.4,0,0.8,0.1,1.2,0.2c0.3,0.1,0.6,0.4,0.9,0.6c0.2,0.3,0.4,0.6,0.5,1c0.1,0.4,0.2,0.8,0.2,1.3c0,0.3,0,0.5,0,0.6h-4.6
		c0,0.7,0.3,1.3,0.7,1.8c0.4,0.4,0.9,0.6,1.6,0.6c0.3,0,0.6,0,0.9-0.1c0.3-0.1,0.5-0.2,0.8-0.4l0.4,0.8c-0.3,0.2-0.6,0.4-1,0.5
		c-0.4,0.1-0.8,0.2-1.2,0.2c-0.5,0-0.9-0.1-1.3-0.2c-0.4-0.2-0.7-0.4-1-0.7s-0.5-0.7-0.7-1.1C463.7,90.4,463.6,89.9,463.6,89.3z
		 M468.4,88.8c0-0.7-0.1-1.2-0.4-1.6s-0.7-0.6-1.2-0.6c-0.2,0-0.5,0-0.7,0.1c-0.2,0.1-0.4,0.2-0.6,0.4c-0.2,0.2-0.3,0.4-0.4,0.7
		c-0.1,0.3-0.2,0.6-0.2,0.9H468.4z"/>
	<path fill="#7C7F81" d="M472.4,89.2l-2.1-3.2h1.2l0.9,1.5c0.1,0.2,0.2,0.4,0.3,0.6s0.2,0.4,0.3,0.6h0.1c0.1-0.2,0.2-0.4,0.3-0.6
		s0.2-0.4,0.3-0.6l0.8-1.5h1.2l-2.1,3.4l2.2,3.4h-1.2l-1-1.6c-0.1-0.2-0.2-0.4-0.4-0.6c-0.1-0.2-0.2-0.4-0.4-0.6H473
		c-0.1,0.2-0.2,0.4-0.3,0.6c-0.1,0.2-0.2,0.4-0.3,0.6l-0.9,1.6h-1.2L472.4,89.2z"/>
	<path fill="#7C7F81" d="M477.9,86.9h-1V86l1.1-0.1L478,84h1v1.9h1.8v0.9H479v3.8c0,0.4,0.1,0.7,0.2,1c0.2,0.2,0.4,0.3,0.8,0.3
		c0.1,0,0.3,0,0.4-0.1c0.1,0,0.3-0.1,0.4-0.1l0.2,0.9c-0.2,0.1-0.4,0.1-0.6,0.2c-0.2,0.1-0.4,0.1-0.7,0.1c-0.4,0-0.7-0.1-0.9-0.2
		s-0.4-0.3-0.6-0.5c-0.2-0.2-0.3-0.4-0.3-0.7c-0.1-0.3-0.1-0.6-0.1-0.9V86.9z"/>
	<path fill="#7C7F81" d="M484.7,89.3c0-0.6,0.1-1.1,0.3-1.5c0.2-0.4,0.4-0.8,0.7-1.1c0.3-0.3,0.6-0.5,1-0.7s0.8-0.2,1.2-0.2
		s0.8,0.1,1.2,0.2c0.4,0.2,0.7,0.4,1,0.7c0.3,0.3,0.5,0.7,0.7,1.1c0.2,0.4,0.3,1,0.3,1.5c0,0.6-0.1,1.1-0.3,1.5s-0.4,0.8-0.7,1.1
		c-0.3,0.3-0.6,0.5-1,0.7c-0.4,0.2-0.8,0.2-1.2,0.2s-0.8-0.1-1.2-0.2c-0.4-0.2-0.7-0.4-1-0.7c-0.3-0.3-0.5-0.7-0.7-1.1
		S484.7,89.9,484.7,89.3z M485.9,89.3c0,0.4,0,0.7,0.1,1.1c0.1,0.3,0.2,0.6,0.4,0.8c0.2,0.2,0.4,0.4,0.6,0.5
		c0.2,0.1,0.5,0.2,0.8,0.2c0.3,0,0.6-0.1,0.8-0.2c0.2-0.1,0.5-0.3,0.6-0.5s0.3-0.5,0.4-0.8c0.1-0.3,0.1-0.7,0.1-1.1
		c0-0.4,0-0.7-0.1-1.1c-0.1-0.3-0.2-0.6-0.4-0.8s-0.4-0.4-0.6-0.5c-0.2-0.1-0.5-0.2-0.8-0.2c-0.3,0-0.6,0.1-0.8,0.2
		c-0.2,0.1-0.5,0.3-0.6,0.5c-0.2,0.2-0.3,0.5-0.4,0.8S485.9,88.9,485.9,89.3z"/>
	<path fill="#7C7F81" d="M492.7,85.9h1l0.1,1h0c0.3-0.3,0.7-0.6,1-0.8s0.8-0.3,1.3-0.3c0.7,0,1.2,0.2,1.6,0.7c0.3,0.4,0.5,1.1,0.5,2
		v4.3H497v-4.2c0-0.6-0.1-1.1-0.3-1.4c-0.2-0.3-0.5-0.4-1-0.4c-0.4,0-0.7,0.1-0.9,0.3c-0.3,0.2-0.6,0.4-0.9,0.8v4.9h-1.1V85.9z"/>
	<path fill="#7C7F81" d="M505.2,84.5h-2.8v-1h6.7v1h-2.8v8.2h-1.2V84.5z"/>
	<path fill="#7C7F81" d="M509.6,85.9h1l0.1,1.2h0c0.2-0.4,0.5-0.8,0.8-1c0.3-0.3,0.7-0.4,1.1-0.4c0.3,0,0.5,0,0.7,0.1l-0.2,1
		c-0.1,0-0.2-0.1-0.3-0.1c-0.1,0-0.2,0-0.4,0c-0.3,0-0.6,0.1-0.9,0.4c-0.3,0.2-0.6,0.6-0.8,1.2v4.4h-1.1V85.9z"/>
	<path fill="#7C7F81" d="M514.2,91c0-0.7,0.3-1.3,1-1.7c0.7-0.4,1.7-0.7,3.2-0.8c0-0.2,0-0.4-0.1-0.6s-0.1-0.4-0.2-0.5
		s-0.2-0.3-0.4-0.4c-0.2-0.1-0.4-0.1-0.7-0.1c-0.4,0-0.8,0.1-1.1,0.2s-0.6,0.3-0.9,0.5l-0.5-0.8c0.3-0.2,0.7-0.4,1.2-0.6
		c0.5-0.2,1-0.3,1.5-0.3c0.8,0,1.4,0.3,1.8,0.8c0.4,0.5,0.6,1.2,0.6,2v4.2h-1l-0.1-0.8h0c-0.3,0.3-0.7,0.5-1.1,0.7
		c-0.4,0.2-0.8,0.3-1.2,0.3c-0.6,0-1.1-0.2-1.4-0.5S514.2,91.6,514.2,91z M515.3,90.9c0,0.4,0.1,0.7,0.3,0.8
		c0.2,0.2,0.5,0.3,0.8,0.3c0.3,0,0.6-0.1,0.9-0.2c0.3-0.2,0.6-0.4,0.9-0.7v-1.9c-0.6,0.1-1,0.2-1.4,0.3c-0.4,0.1-0.7,0.2-0.9,0.4
		c-0.2,0.1-0.4,0.3-0.5,0.5C515.4,90.5,515.3,90.7,515.3,90.9z"/>
	<path fill="#7C7F81" d="M520.5,85.9h1.2l1.3,3.9c0.1,0.3,0.2,0.7,0.3,1s0.2,0.7,0.3,1h0.1c0.1-0.3,0.2-0.7,0.3-1s0.2-0.7,0.3-1
		l1.3-3.9h1.1l-2.4,6.8h-1.3L520.5,85.9z"/>
	<path fill="#7C7F81" d="M528.6,84.5c-0.2,0-0.4-0.1-0.6-0.2s-0.2-0.3-0.2-0.5c0-0.2,0.1-0.4,0.2-0.5s0.3-0.2,0.6-0.2
		c0.2,0,0.4,0.1,0.6,0.2s0.2,0.3,0.2,0.5c0,0.2-0.1,0.4-0.2,0.5S528.8,84.5,528.6,84.5z M528,85.9h1.1v6.8H528V85.9z"/>
	<path fill="#7C7F81" d="M531.1,91.2c0.3,0.2,0.6,0.4,0.9,0.6c0.3,0.1,0.7,0.2,1.1,0.2c0.4,0,0.8-0.1,1-0.3c0.2-0.2,0.3-0.5,0.3-0.8
		c0-0.2,0-0.3-0.1-0.5c-0.1-0.1-0.2-0.2-0.4-0.3c-0.1-0.1-0.3-0.2-0.5-0.3s-0.4-0.1-0.6-0.2c-0.2-0.1-0.5-0.2-0.7-0.3
		c-0.2-0.1-0.5-0.2-0.7-0.4c-0.2-0.2-0.3-0.3-0.5-0.5c-0.1-0.2-0.2-0.5-0.2-0.7c0-0.3,0.1-0.5,0.2-0.8c0.1-0.2,0.3-0.4,0.5-0.6
		c0.2-0.2,0.4-0.3,0.7-0.4c0.3-0.1,0.6-0.1,1-0.1c0.4,0,0.8,0.1,1.2,0.2c0.4,0.1,0.7,0.3,0.9,0.5l-0.5,0.7c-0.2-0.2-0.5-0.3-0.7-0.4
		c-0.3-0.1-0.5-0.2-0.8-0.2c-0.4,0-0.7,0.1-0.9,0.3c-0.2,0.2-0.3,0.4-0.3,0.7c0,0.2,0,0.3,0.1,0.4s0.2,0.2,0.3,0.3
		c0.1,0.1,0.3,0.2,0.5,0.2c0.2,0.1,0.4,0.1,0.6,0.2c0.2,0.1,0.5,0.2,0.7,0.3c0.2,0.1,0.5,0.2,0.7,0.4c0.2,0.2,0.4,0.3,0.5,0.6
		c0.1,0.2,0.2,0.5,0.2,0.8c0,0.3-0.1,0.5-0.2,0.8c-0.1,0.2-0.3,0.5-0.5,0.6c-0.2,0.2-0.5,0.3-0.8,0.4c-0.3,0.1-0.7,0.2-1.1,0.2
		c-0.5,0-0.9-0.1-1.4-0.3s-0.8-0.4-1.1-0.7L531.1,91.2z"/>
	<path fill="#7C7F81" d="M539.6,88.1c0-0.7,0.1-1.4,0.3-2s0.5-1.1,0.9-1.5c0.4-0.4,0.8-0.7,1.3-0.9c0.5-0.2,1-0.3,1.6-0.3
		c0.6,0,1,0.1,1.5,0.3c0.4,0.2,0.8,0.5,1,0.8l-0.7,0.7c-0.2-0.3-0.5-0.5-0.8-0.6c-0.3-0.2-0.6-0.2-1-0.2c-0.4,0-0.8,0.1-1.2,0.3
		s-0.7,0.4-0.9,0.7c-0.3,0.3-0.4,0.7-0.6,1.2c-0.1,0.5-0.2,1-0.2,1.5c0,0.6,0.1,1.1,0.2,1.6c0.1,0.5,0.3,0.9,0.6,1.2
		c0.2,0.3,0.5,0.6,0.9,0.8c0.4,0.2,0.7,0.3,1.2,0.3c0.4,0,0.8-0.1,1.2-0.3c0.3-0.2,0.6-0.4,0.9-0.8l0.7,0.7c-0.4,0.4-0.8,0.7-1.2,1
		c-0.5,0.2-1,0.4-1.6,0.4c-0.6,0-1.1-0.1-1.6-0.3c-0.5-0.2-0.9-0.5-1.3-0.9c-0.4-0.4-0.6-0.9-0.8-1.5
		C539.7,89.5,539.6,88.9,539.6,88.1z"/>
	<path fill="#7C7F81" d="M548,83.5h1.2v9.2H548V83.5z"/>
	<path fill="#7C7F81" d="M551.3,92c0-0.3,0.1-0.5,0.2-0.7c0.2-0.2,0.4-0.2,0.6-0.2c0.2,0,0.4,0.1,0.6,0.2c0.2,0.2,0.2,0.4,0.2,0.7
		c0,0.3-0.1,0.5-0.2,0.6c-0.2,0.2-0.4,0.2-0.6,0.2c-0.2,0-0.4-0.1-0.6-0.2C551.4,92.5,551.3,92.3,551.3,92z"/>
</g>
<polygon fill="none" points="75.9,8 66.4,35.1 66.4,415.5 85.4,415.5 85.4,35.1 "/>
<polygon fill="none" points="768.2,84.4 758.7,111.4 758.7,415.5 777.7,415.5 777.7,111.4 "/>
<path fill="#C6C7C9" d="M687.4,172.7v-0.6c0-9.2-7.1-16.6-15.9-16.6C680.3,155.5,687.4,163.2,687.4,172.7z"/>
<path fill="#C6C7C9" d="M169,155.5c-8.8,0-15.9,7.5-15.9,16.6v0.6C153,163.2,160.2,155.5,169,155.5z"/>
<path fill="#4BB0B9" d="M758.7,111.4l9.5-27l9.5,27v304.1h4V111c0-0.2,0-0.5-0.1-0.7l-11.5-32.7c-0.3-0.8-1-1.3-1.9-1.3
	s-1.6,0.5-1.9,1.3l-11.5,32.7c-0.1,0.2-0.1,0.4-0.1,0.7v304.4h4V111.4z"/>
<path fill="#D8BA5B" d="M66.4,35.1l9.5-27l9.5,27v380.4h4V34.7c0-0.2,0-0.5-0.1-0.7L77.8,1.3c-0.3-0.8-1-1.3-1.9-1.3
	S74.3,0.5,74,1.3L62.5,34c-0.1,0.2-0.1,0.4-0.1,0.7v380.8h4V35.1z"/>
</svg>
