<?xml version="1.0" encoding="utf-8"?>
<!-- Generator: Adobe Illustrator 18.1.1, SVG Export Plug-In . SVG Version: 6.00 Build 0)  -->
<svg version="1.1" id="Layer_1" xmlns="http://www.w3.org/2000/svg" xmlns:xlink="http://www.w3.org/1999/xlink" x="0px" y="0px"
	 viewBox="0 0 33.3 32.3" enable-background="new 0 0 33.3 32.3" xml:space="preserve">
<g>
	<polygon fill="#208A9B" points="33.3,25.6 16.8,32.3 16.8,8.1 33.3,3.8 	"/>
	<polygon fill="#78B9C3" points="16.8,32.3 0,25 0,3.6 16.8,8.2 	"/>
	<polygon fill="#C6DFDF" points="0,3.6 17.1,0 33.3,3.8 16.8,8.2 	"/>
	<polygon fill="#FFFFFF" points="9.2,6.2 25.1,1.9 22.1,1.2 6.5,5.3 6.4,8.1 6.8,7.7 7.1,8.2 7.4,7.9 7.8,8.4 8.2,8 8.4,8.5 
		8.8,8.1 9.2,8.8 	"/>
	<g>
		<path fill="#FFFFFF" d="M30.6,11l-0.2,0v0.6L30,11.8v-0.6l-0.2,0v0.6L29.3,12v-0.6l-0.2,0V12l-0.5,0.1v-0.6l-0.2,0v0.6L28,12.4
			v-0.6l-0.2,0v0.6l-0.5,0.1v-0.6l-0.2,0v0.6l-0.5,0.1v-0.6l-0.2,0v0.6l-0.5,0.1v-0.6l-0.2,0V13l-0.5,0.1v-0.6l-0.2,0v0.6l-0.5,0.1
			v-0.6l-0.2,0v0.6l-0.5,0.1v-0.6l-0.2,0v0.6l-0.5,0.1v-0.6l-0.2,0v0.6l-0.5,0.1v-0.6l-0.2,0v0.6l-0.5,0.1v-0.6l-0.2,0v0.6l-0.5,0.1
			v-0.6l-0.2,0v0.6L21,14.4v-0.6l-0.2,0v0.6l-0.5,0.1V14l-0.2,0v0.6l-0.4,0.1c0,2.5,0,8,0,9.9l0.4-0.2v0.6l0.2-0.1v-0.6l0.5-0.2v0.6
			l0.2-0.1v-0.6l0.5-0.2v0.6l0.2-0.1V24l0.5-0.2v0.6l0.2-0.1v-0.6l0.5-0.2v0.6l0.2-0.1v-0.6l0.5-0.2v0.6l0.2-0.1v-0.6L24,23v0.6
			l0.2-0.1V23l0.5-0.2v0.6l0.2-0.1v-0.6l0.5-0.2v0.6l0.2-0.1v-0.6l0.5-0.2v0.6l0.2-0.1v-0.6l0.5-0.2v0.6l0.2-0.1V22l0.5-0.2v0.6
			l0.2-0.1v-0.6l0.5-0.2v0.6l0.2-0.1v-0.6l0.5-0.2V22l0.2-0.1v-0.6l0.5-0.2v0.6l0.2-0.1V21l0.5-0.2v0.6l0.2-0.1v-0.6l0.5-0.2v0.6
			l0.2-0.1v-0.6l0.5-0.2v-8.9l-0.5,0.1V11z"/>
		<polygon fill="#FFFFFF" points="30.6,21.8 31.1,21.6 31.1,21 30.6,21.2 		"/>
		<polygon fill="#208A9B" points="30.6,21.2 31.1,21 31.1,20.3 30.6,20.5 		"/>
		<polygon fill="#FFFFFF" points="30.6,10.4 30.6,11 31.1,10.8 31.1,10.2 		"/>
		<polygon fill="#208A9B" points="30.6,11.6 31.1,11.5 31.1,10.8 30.6,11 		"/>
		<path fill="#208A9B" d="M20.2,13.4l-0.4,0.1c0,0,0,0.2,0,0.6l0.4-0.1V13.4z"/>
		<path fill="#FFFFFF" d="M20.2,14l-0.4,0.1c0,0.2,0,0.4,0,0.6l0.4-0.1V14z"/>
		<polygon fill="#FFFFFF" points="24.7,12.1 24.2,12.2 24.2,12.9 24.7,12.7 		"/>
		<polygon fill="#208A9B" points="24.7,13.4 24.7,12.7 24.2,12.9 24.2,13.5 		"/>
		<polygon fill="#208A9B" points="24,12.3 23.6,12.4 23.6,13.1 24,12.9 		"/>
		<polygon fill="#FFFFFF" points="24,13.5 24,12.9 23.6,13.1 23.6,13.7 		"/>
		<polygon fill="#208A9B" points="25.3,11.9 24.8,12 24.8,12.7 25.3,12.5 		"/>
		<polygon fill="#FFFFFF" points="25.3,13.2 25.3,12.5 24.8,12.7 24.8,13.3 		"/>
		<polygon fill="#208A9B" points="21.5,13 21,13.2 21,13.8 21.5,13.7 		"/>
		<polygon fill="#FFFFFF" points="21.5,14.3 21.5,13.7 21,13.8 21,14.4 		"/>
		<polygon fill="#FFFFFF" points="22.1,12.8 21.6,13 21.6,13.6 22.1,13.5 		"/>
		<polygon fill="#208A9B" points="22.1,14.1 22.1,13.5 21.6,13.6 21.6,14.3 		"/>
		<polygon fill="#FFFFFF" points="20.8,13.2 20.4,13.4 20.4,14 20.8,13.9 		"/>
		<polygon fill="#208A9B" points="20.8,14.5 20.8,13.9 20.4,14 20.4,14.6 		"/>
		<polygon fill="#208A9B" points="22.8,12.7 22.3,12.8 22.3,13.4 22.8,13.3 		"/>
		<polygon fill="#FFFFFF" points="22.8,13.9 22.8,13.3 22.3,13.4 22.3,14.1 		"/>
		<polygon fill="#FFFFFF" points="23.4,12.5 22.9,12.6 22.9,13.2 23.4,13.1 		"/>
		<polygon fill="#208A9B" points="23.4,13.7 23.4,13.1 22.9,13.2 22.9,13.9 		"/>
		<polygon fill="#FFFFFF" points="29.8,10.6 29.3,10.7 29.3,11.4 29.8,11.2 		"/>
		<polygon fill="#208A9B" points="29.8,11.9 29.8,11.2 29.3,11.4 29.3,12 		"/>
		<polygon fill="#208A9B" points="29.2,10.8 28.7,10.9 28.7,11.5 29.2,11.4 		"/>
		<polygon fill="#FFFFFF" points="29.2,12 29.2,11.4 28.7,11.5 28.7,12.2 		"/>
		<polygon fill="#FFFFFF" points="28.5,11 28,11.1 28,11.7 28.5,11.6 		"/>
		<polygon fill="#208A9B" points="28.5,12.2 28.5,11.6 28,11.7 28,12.4 		"/>
		<polygon fill="#208A9B" points="30.4,10.4 30,10.5 30,11.2 30.4,11 		"/>
		<polygon fill="#FFFFFF" points="30.4,11.7 30.4,11 30,11.2 30,11.8 		"/>
		<polygon fill="#FFFFFF" points="26,11.7 25.5,11.9 25.5,12.5 26,12.3 		"/>
		<polygon fill="#208A9B" points="26,13 26,12.3 25.5,12.5 25.5,13.1 		"/>
		<polygon fill="#208A9B" points="27.9,11.1 27.4,11.3 27.4,11.9 27.9,11.8 		"/>
		<polygon fill="#FFFFFF" points="27.9,12.4 27.9,11.8 27.4,11.9 27.4,12.6 		"/>
		<polygon fill="#FFFFFF" points="27.2,11.3 26.8,11.5 26.8,12.1 27.2,12 		"/>
		<polygon fill="#208A9B" points="27.2,12.6 27.2,12 26.8,12.1 26.8,12.7 		"/>
		<polygon fill="#208A9B" points="26.6,11.5 26.1,11.7 26.1,12.3 26.6,12.2 		"/>
		<polygon fill="#FFFFFF" points="26.6,12.8 26.6,12.2 26.1,12.3 26.1,12.9 		"/>
		<polygon fill="#FFFFFF" points="26.8,23.3 27.2,23.1 27.2,22.5 26.8,22.6 		"/>
		<polygon fill="#208A9B" points="26.8,22 26.8,22.6 27.2,22.5 27.2,21.8 		"/>
		<polygon fill="#208A9B" points="28.7,22.5 29.2,22.3 29.2,21.7 28.7,21.9 		"/>
		<polygon fill="#FFFFFF" points="28.7,21.3 28.7,21.9 29.2,21.7 29.2,21.1 		"/>
		<polygon fill="#FFFFFF" points="28,22.8 28.5,22.6 28.5,22 28,22.1 		"/>
		<polygon fill="#208A9B" points="28,21.5 28,22.1 28.5,22 28.5,21.3 		"/>
		<polygon fill="#208A9B" points="27.4,23 27.9,22.8 27.9,22.2 27.4,22.4 		"/>
		<polygon fill="#FFFFFF" points="27.4,21.8 27.4,22.4 27.9,22.2 27.9,21.6 		"/>
		<polygon fill="#208A9B" points="21,25.5 21.5,25.3 21.5,24.7 21,24.9 		"/>
		<polygon fill="#FFFFFF" points="21,24.2 21,24.9 21.5,24.7 21.5,24 		"/>
		<polygon fill="#FFFFFF" points="21.6,25.2 22.1,25.1 22.1,24.4 21.6,24.6 		"/>
		<polygon fill="#208A9B" points="21.6,24 21.6,24.6 22.1,24.4 22.1,23.8 		"/>
		<polygon fill="#FFFFFF" points="29.3,22.3 29.8,22.1 29.8,21.5 29.3,21.7 		"/>
		<polygon fill="#208A9B" points="29.3,21 29.3,21.7 29.8,21.5 29.8,20.8 		"/>
		<polygon fill="#FFFFFF" points="24.2,24.3 24.7,24.1 24.7,23.4 24.2,23.6 		"/>
		<polygon fill="#208A9B" points="24.2,23 24.2,23.6 24.7,23.4 24.7,22.8 		"/>
		<polygon fill="#FFFFFF" points="25.5,23.8 26,23.6 26,22.9 25.5,23.1 		"/>
		<polygon fill="#208A9B" points="25.5,22.5 25.5,23.1 26,22.9 26,22.3 		"/>
		<polygon fill="#208A9B" points="23.6,24.5 24,24.3 24,23.7 23.6,23.9 		"/>
		<polygon fill="#FFFFFF" points="23.6,23.2 23.6,23.9 24,23.7 24,23 		"/>
		<polygon fill="#208A9B" points="22.3,25 22.8,24.8 22.8,24.2 22.3,24.4 		"/>
		<polygon fill="#FFFFFF" points="22.3,23.7 22.3,24.4 22.8,24.2 22.8,23.5 		"/>
		<polygon fill="#FFFFFF" points="22.9,24.7 23.4,24.6 23.4,23.9 22.9,24.1 		"/>
		<polygon fill="#208A9B" points="22.9,23.5 22.9,24.1 23.4,23.9 23.4,23.3 		"/>
		<polygon fill="#208A9B" points="26.1,23.5 26.6,23.3 26.6,22.7 26.1,22.9 		"/>
		<polygon fill="#FFFFFF" points="26.1,22.2 26.1,22.9 26.6,22.7 26.6,22.1 		"/>
		<polygon fill="#208A9B" points="30,22 30.4,21.9 30.4,21.2 30,21.4 		"/>
		<polygon fill="#FFFFFF" points="30,20.8 30,21.4 30.4,21.2 30.4,20.6 		"/>
		<polygon fill="#FFFFFF" points="20.4,25.7 20.8,25.5 20.8,24.9 20.4,25.1 		"/>
		<polygon fill="#208A9B" points="20.4,24.5 20.4,25.1 20.8,24.9 20.8,24.3 		"/>
		<path fill="#208A9B" d="M19.8,26l0.4-0.2v-0.6l-0.4,0.2C19.8,25.7,19.8,26,19.8,26z"/>
		<path fill="#FFFFFF" d="M19.8,24.7c0,0.4,0,0.6,0,0.6l0.4-0.2v-0.6L19.8,24.7z"/>
		<polygon fill="#208A9B" points="24.8,24 25.3,23.8 25.3,23.2 24.8,23.4 		"/>
		<polygon fill="#FFFFFF" points="24.8,22.7 24.8,23.4 25.3,23.2 25.3,22.6 		"/>
	</g>
	<g>
		<path fill="#FFFFFF" d="M2.8,11L3,11v0.6l0.5,0.1v-0.6l0.2,0v0.6L4.1,12v-0.6l0.2,0V12l0.5,0.1v-0.6l0.2,0v0.6l0.5,0.1v-0.6l0.2,0
			v0.6L6,12.6v-0.6l0.2,0v0.6l0.5,0.1v-0.6l0.2,0v0.6l0.5,0.1v-0.6l0.2,0V13l0.5,0.1v-0.6l0.2,0v0.6l0.5,0.1v-0.6l0.2,0v0.6l0.5,0.1
			v-0.6l0.2,0v0.6l0.5,0.1v-0.6l0.2,0v0.6l0.5,0.1v-0.6l0.2,0v0.6l0.5,0.1v-0.6l0.2,0v0.6l0.5,0.1v-0.6l0.2,0v0.6l0.5,0.1v-0.6
			l0.2,0v0.6l0.5,0.1V14l0.2,0v0.6l0.4,0.1c0,2.5,0,8,0,9.9l-0.4-0.2v0.6l-0.2-0.1v-0.6l-0.5-0.2v0.6l-0.2-0.1v-0.6L12,24v0.6
			l-0.2-0.1V24l-0.5-0.2v0.6l-0.2-0.1v-0.6l-0.5-0.2v0.6l-0.2-0.1v-0.6L10,23.3v0.6l-0.2-0.1v-0.6L9.4,23v0.6l-0.2-0.1V23l-0.5-0.2
			v0.6l-0.2-0.1v-0.6l-0.5-0.2v0.6l-0.2-0.1v-0.6l-0.5-0.2v0.6l-0.2-0.1v-0.6l-0.5-0.2v0.6l-0.2-0.1V22l-0.5-0.2v0.6L6,22.4v-0.6
			l-0.5-0.2v0.6l-0.2-0.1v-0.6l-0.5-0.2V22l-0.2-0.1v-0.6l-0.5-0.2v0.6l-0.2-0.1V21l-0.5-0.2v0.6l-0.2-0.1v-0.6L3,20.6v0.6l-0.2-0.1
			v-0.6l-0.5-0.2v-8.9l0.5,0.1V11z"/>
		<polygon fill="#FFFFFF" points="2.8,21.8 2.3,21.6 2.3,21 2.8,21.2 		"/>
		<polygon fill="#208A9B" points="2.8,21.2 2.3,21 2.3,20.3 2.8,20.5 		"/>
		<polygon fill="#FFFFFF" points="2.8,10.4 2.8,11 2.3,10.8 2.3,10.2 		"/>
		<polygon fill="#208A9B" points="2.8,11.6 2.3,11.5 2.3,10.8 2.8,11 		"/>
		<path fill="#208A9B" d="M13.2,13.4l0.4,0.1c0,0,0,0.2,0,0.6L13.2,14V13.4z"/>
		<path fill="#FFFFFF" d="M13.2,14l0.4,0.1c0,0.2,0,0.4,0,0.6l-0.4-0.1V14z"/>
		<polygon fill="#FFFFFF" points="8.7,12.1 9.2,12.2 9.2,12.9 8.7,12.7 		"/>
		<polygon fill="#208A9B" points="8.7,13.4 8.7,12.7 9.2,12.9 9.2,13.5 		"/>
		<polygon fill="#208A9B" points="9.4,12.3 9.9,12.4 9.9,13.1 9.4,12.9 		"/>
		<polygon fill="#FFFFFF" points="9.4,13.5 9.4,12.9 9.9,13.1 9.9,13.7 		"/>
		<polygon fill="#208A9B" points="8.1,11.9 8.6,12 8.6,12.7 8.1,12.5 		"/>
		<polygon fill="#FFFFFF" points="8.1,13.2 8.1,12.5 8.6,12.7 8.6,13.3 		"/>
		<polygon fill="#208A9B" points="12,13 12.4,13.2 12.4,13.8 12,13.7 		"/>
		<polygon fill="#FFFFFF" points="12,14.3 12,13.7 12.4,13.8 12.4,14.4 		"/>
		<polygon fill="#FFFFFF" points="11.3,12.8 11.8,13 11.8,13.6 11.3,13.5 		"/>
		<polygon fill="#208A9B" points="11.3,14.1 11.3,13.5 11.8,13.6 11.8,14.3 		"/>
		<polygon fill="#FFFFFF" points="12.6,13.2 13.1,13.4 13.1,14 12.6,13.9 		"/>
		<polygon fill="#208A9B" points="12.6,14.5 12.6,13.9 13.1,14 13.1,14.6 		"/>
		<polygon fill="#208A9B" points="10.7,12.7 11.2,12.8 11.2,13.4 10.7,13.3 		"/>
		<polygon fill="#FFFFFF" points="10.7,13.9 10.7,13.3 11.2,13.4 11.2,14.1 		"/>
		<polygon fill="#FFFFFF" points="10,12.5 10.5,12.6 10.5,13.2 10,13.1 		"/>
		<polygon fill="#208A9B" points="10,13.7 10,13.1 10.5,13.2 10.5,13.9 		"/>
		<polygon fill="#FFFFFF" points="3.6,10.6 4.1,10.7 4.1,11.4 3.6,11.2 		"/>
		<polygon fill="#208A9B" points="3.6,11.9 3.6,11.2 4.1,11.4 4.1,12 		"/>
		<polygon fill="#208A9B" points="4.3,10.8 4.7,10.9 4.7,11.5 4.3,11.4 		"/>
		<polygon fill="#FFFFFF" points="4.3,12 4.3,11.4 4.7,11.5 4.7,12.2 		"/>
		<polygon fill="#FFFFFF" points="4.9,11 5.4,11.1 5.4,11.7 4.9,11.6 		"/>
		<polygon fill="#208A9B" points="4.9,12.2 4.9,11.6 5.4,11.7 5.4,12.4 		"/>
		<polygon fill="#208A9B" points="3,10.4 3.5,10.5 3.5,11.2 3,11 		"/>
		<polygon fill="#FFFFFF" points="3,11.7 3,11 3.5,11.2 3.5,11.8 		"/>
		<polygon fill="#FFFFFF" points="7.5,11.7 7.9,11.9 7.9,12.5 7.5,12.3 		"/>
		<polygon fill="#208A9B" points="7.5,13 7.5,12.3 7.9,12.5 7.9,13.1 		"/>
		<polygon fill="#208A9B" points="5.5,11.1 6,11.3 6,11.9 5.5,11.8 		"/>
		<polygon fill="#FFFFFF" points="5.5,12.4 5.5,11.8 6,11.9 6,12.6 		"/>
		<polygon fill="#FFFFFF" points="6.2,11.3 6.7,11.5 6.7,12.1 6.2,12 		"/>
		<polygon fill="#208A9B" points="6.2,12.6 6.2,12 6.7,12.1 6.7,12.7 		"/>
		<polygon fill="#208A9B" points="6.8,11.5 7.3,11.7 7.3,12.3 6.8,12.2 		"/>
		<polygon fill="#FFFFFF" points="6.8,12.8 6.8,12.2 7.3,12.3 7.3,12.9 		"/>
		<polygon fill="#FFFFFF" points="6.7,23.3 6.2,23.1 6.2,22.5 6.7,22.6 		"/>
		<polygon fill="#208A9B" points="6.7,22 6.7,22.6 6.2,22.5 6.2,21.8 		"/>
		<polygon fill="#208A9B" points="4.7,22.5 4.3,22.3 4.3,21.7 4.7,21.9 		"/>
		<polygon fill="#FFFFFF" points="4.7,21.3 4.7,21.9 4.3,21.7 4.3,21.1 		"/>
		<polygon fill="#FFFFFF" points="5.4,22.8 4.9,22.6 4.9,22 5.4,22.1 		"/>
		<polygon fill="#208A9B" points="5.4,21.5 5.4,22.1 4.9,22 4.9,21.3 		"/>
		<polygon fill="#208A9B" points="6,23 5.5,22.8 5.5,22.2 6,22.4 		"/>
		<polygon fill="#FFFFFF" points="6,21.8 6,22.4 5.5,22.2 5.5,21.6 		"/>
		<polygon fill="#208A9B" points="12.4,25.5 12,25.3 12,24.7 12.4,24.9 		"/>
		<polygon fill="#FFFFFF" points="12.4,24.2 12.4,24.9 12,24.7 12,24 		"/>
		<polygon fill="#FFFFFF" points="11.8,25.2 11.3,25.1 11.3,24.4 11.8,24.6 		"/>
		<polygon fill="#208A9B" points="11.8,24 11.8,24.6 11.3,24.4 11.3,23.8 		"/>
		<polygon fill="#FFFFFF" points="4.1,22.3 3.6,22.1 3.6,21.5 4.1,21.7 		"/>
		<polygon fill="#208A9B" points="4.1,21 4.1,21.7 3.6,21.5 3.6,20.8 		"/>
		<polygon fill="#FFFFFF" points="9.2,24.3 8.7,24.1 8.7,23.4 9.2,23.6 		"/>
		<polygon fill="#208A9B" points="9.2,23 9.2,23.6 8.7,23.4 8.7,22.8 		"/>
		<polygon fill="#FFFFFF" points="7.9,23.8 7.5,23.6 7.5,22.9 7.9,23.1 		"/>
		<polygon fill="#208A9B" points="7.9,22.5 7.9,23.1 7.5,22.9 7.5,22.3 		"/>
		<polygon fill="#208A9B" points="9.9,24.5 9.4,24.3 9.4,23.7 9.9,23.9 		"/>
		<polygon fill="#FFFFFF" points="9.9,23.2 9.9,23.9 9.4,23.7 9.4,23 		"/>
		<polygon fill="#208A9B" points="11.2,25 10.7,24.8 10.7,24.2 11.2,24.4 		"/>
		<polygon fill="#FFFFFF" points="11.2,23.7 11.2,24.4 10.7,24.2 10.7,23.5 		"/>
		<polygon fill="#FFFFFF" points="10.5,24.7 10,24.6 10,23.9 10.5,24.1 		"/>
		<polygon fill="#208A9B" points="10.5,23.5 10.5,24.1 10,23.9 10,23.3 		"/>
		<polygon fill="#208A9B" points="7.3,23.5 6.8,23.3 6.8,22.7 7.3,22.9 		"/>
		<polygon fill="#FFFFFF" points="7.3,22.2 7.3,22.9 6.8,22.7 6.8,22.1 		"/>
		<polygon fill="#208A9B" points="3.5,22 3,21.9 3,21.2 3.5,21.4 		"/>
		<polygon fill="#FFFFFF" points="3.5,20.8 3.5,21.4 3,21.2 3,20.6 		"/>
		<polygon fill="#FFFFFF" points="13.1,25.7 12.6,25.5 12.6,24.9 13.1,25.1 		"/>
		<polygon fill="#208A9B" points="13.1,24.5 13.1,25.1 12.6,24.9 12.6,24.3 		"/>
		<path fill="#208A9B" d="M13.7,26l-0.4-0.2v-0.6l0.4,0.2C13.7,25.7,13.7,26,13.7,26z"/>
		<path fill="#FFFFFF" d="M13.7,24.7c0,0.4,0,0.6,0,0.6l-0.4-0.2v-0.6L13.7,24.7z"/>
		<polygon fill="#208A9B" points="8.6,24 8.1,23.8 8.1,23.2 8.6,23.4 		"/>
		<polygon fill="#FFFFFF" points="8.6,22.7 8.6,23.4 8.1,23.2 8.1,22.6 		"/>
	</g>
</g>
</svg>
